<svg xmlns="http://www.w3.org/2000/svg" viewBox="0 0 48 48" role="img" aria-label="Louise"><!-- Louise's mark: big square tortoiseshell glasses on a gilt chain, on a round bookplate seal (walnut disc, gilt ring, paper-cream inner disc). Plain hex, no motion. --><circle cx="24" cy="24" r="23.500" fill="#1E130C"/><circle cx="24" cy="24" r="20.600" fill="none" stroke="#D9A441" stroke-width="2.200"/><circle cx="24" cy="24" r="19.200" fill="#F5ECD7"/><path d="M7.500 20.500 C6 36 14 41 24 41 C34 41 42 36 40.500 20.500" fill="none" stroke="#2A1D14" stroke-width="3" stroke-linecap="round"/><path d="M7.500 20.500 C6 36 14 41 24 41 C34 41 42 36 40.500 20.500" fill="none" stroke="#D9A441" stroke-width="1.400" stroke-linecap="round"/><g fill="#E8C27A" stroke="#2A1D14" stroke-width=".8"><circle cx="8.300" cy="29" r="1.600"/><circle cx="12.500" cy="36.500" r="1.600"/><circle cx="24" cy="41" r="1.600"/><circle cx="35.500" cy="36.500" r="1.600"/><circle cx="39.700" cy="29" r="1.600"/></g><rect x="9.500" y="14" width="12.500" height="12.500" rx="2.200" fill="#CFEFF5" stroke="#2A1D14" stroke-width="4.200"/><rect x="26" y="14" width="12.500" height="12.500" rx="2.200" fill="#CFEFF5" stroke="#2A1D14" stroke-width="4.200"/><rect x="9.500" y="14" width="12.500" height="12.500" rx="2.200" fill="none" stroke="#5A3A22" stroke-width="2.200"/><rect x="26" y="14" width="12.500" height="12.500" rx="2.200" fill="none" stroke="#5A3A22" stroke-width="2.200"/><path d="M22 19.500 H26" stroke="#2A1D14" stroke-width="3.400"/><path d="M22 19.500 H26" stroke="#5A3A22" stroke-width="1.600"/><path d="M12.500 17.500 L15.500 17.500 L12.500 22.500 Z M29 17.500 L32 17.500 L29 22.500 Z" fill="#FFFFFF" opacity=".75"/></svg>
