<svg xmlns="http://www.w3.org/2000/svg" viewBox="0 0 640 400" id="lz-idle" class="lz-scene" role="img" aria-labelledby="lz-idle-title">
<title id="lz-idle-title">Louise at rest, holding a cup of tea, her glasses on their chain</title>
<!--
  lz-idle: Louise at rest. Same room, desk and computer as lz-researching (same pixels); only Louise changes.
  She is the vinyl-toy seated side-profile figure of researching.svg, lifted nearly verbatim: the same chair, two-book booster, stubby
  dangling legs and lap, torso, collar and head group (lz-idl-head, translate(294 136)), sitting back a little (lz-idl-pose rotate(6 410 290)).
  Shot: a cup of tea held in both mitts in front of her chest. Her glasses stay on her face, on their gilt chain. Her one big cartoon eye is
  content and drowsy: the lid lowered to about half, the iris peeking under it, a soft happy arch of cheek below. The monitor is idle: a dim,
  slow glow, no light bands.
  Parts (all ids and rules scoped lz-idl- / #lz-idle):
    lz-idl-room   wall, wainscot, floor line, bookshelf, frames, clock       lz-idl-desk  oak desk, books, pen mug, banker's lamp
    lz-idl-light  dim monitor glow                                           lz-idl-pc    tower, monitor, keyboard, mouse
    lz-idl-louise chair, booster, legs, lz-idl-breath (far arm, pose: torso,  lz-idl-lamp  warm lamp wash
                  collar, head; far mitt, cup, near arm and mitt, steam)
  Motion (CSS only; transform and opacity only):
    .lz-idl-steam-a/b/c  three wisps rise and fade from the cup (4 s ease-in-out, staggered 1.35 s)
    .lz-idl-breath       a slow breath, 1 px up and down (5 s ease-in-out)
    .lz-idl-glow         the monitor's dim glow pulses (8 s ease-in-out, opacity .55 to .7)
  Reduced motion stops every animation; the un-animated pose is the still frame (steam shown, glow at rest).
-->
<defs>
<radialGradient id="lz-idl-wallg" gradientUnits="userSpaceOnUse" cx="330" cy="140" r="440"><stop offset="0" stop-color="#D6B98D"/><stop offset=".55" stop-color="#C9A97C"/><stop offset="1" stop-color="#97774F"/></radialGradient>
<linearGradient id="lz-idl-floorg" gradientUnits="userSpaceOnUse" x1="0" y1="340" x2="0" y2="400"><stop offset="0" stop-color="#8A5E37"/><stop offset="1" stop-color="#5C3B22"/></linearGradient>
<linearGradient id="lz-idl-beigeg" gradientUnits="userSpaceOnUse" x1="0" y1="148" x2="0" y2="254"><stop offset="0" stop-color="#EDE4CE"/><stop offset=".5" stop-color="#DDD1B3"/><stop offset="1" stop-color="#C6B893"/></linearGradient>
<linearGradient id="lz-idl-beigeb" x1="0" y1="0" x2="0" y2="1"><stop offset="0" stop-color="#EDE4CE"/><stop offset=".55" stop-color="#DDD1B3"/><stop offset="1" stop-color="#C6B893"/></linearGradient>
<linearGradient id="lz-idl-rearg" gradientUnits="userSpaceOnUse" x1="118" y1="0" x2="215" y2="0"><stop offset="0" stop-color="#A29372" stop-opacity=".75"/><stop offset="1" stop-color="#A29372" stop-opacity="0"/></linearGradient>
<radialGradient id="lz-idl-beamg"><stop offset="0" stop-color="#CFF2FA" stop-opacity=".8"/><stop offset=".25" stop-color="#A9E4F2" stop-opacity=".45"/><stop offset=".55" stop-color="#A9E4F2" stop-opacity=".16"/><stop offset="1" stop-color="#A9E4F2" stop-opacity="0"/></radialGradient>
<radialGradient id="lz-idl-edgeg" gradientUnits="userSpaceOnUse" cx="268" cy="204" r="30"><stop offset="0" stop-color="#E6FAFF" stop-opacity=".9"/><stop offset="1" stop-color="#7FD6E8" stop-opacity="0"/></radialGradient>
<radialGradient id="lz-idl-deskg" gradientUnits="userSpaceOnUse" cx="300" cy="262" r="80"><stop offset="0" stop-color="#A9E4F2" stop-opacity=".3"/><stop offset="1" stop-color="#A9E4F2" stop-opacity="0"/></radialGradient>
<radialGradient id="lz-idl-lampg" gradientUnits="userSpaceOnUse" cx="610" cy="0" r="470"><stop offset="0" stop-color="#F2C46B" stop-opacity=".36"/><stop offset=".6" stop-color="#F2C46B" stop-opacity=".12"/><stop offset="1" stop-color="#F2C46B" stop-opacity="0"/></radialGradient>
<radialGradient id="lz-idl-lampg2" gradientUnits="userSpaceOnUse" cx="500" cy="212" r="70"><stop offset="0" stop-color="#FFE2A0" stop-opacity=".4"/><stop offset="1" stop-color="#FFE2A0" stop-opacity="0"/></radialGradient>
<linearGradient id="lz-idl-shadeg" x1="0" y1="0" x2="1" y2="0"><stop offset="0" stop-color="#24473A"/><stop offset=".45" stop-color="#3E7259"/><stop offset="1" stop-color="#2F5A45"/></linearGradient>
<clipPath id="lz-idl-hc"><path d="M32 0H68C86 0 100 14 100 32V62C100 79 88 92 70 92H34C12 92 0 82 0 60V32C0 14 14 0 32 0Z"/></clipPath>
<clipPath id="lz-idl-bc"><circle cx="78" cy="2" r="16"/></clipPath>
<clipPath id="lz-idl-pane"><rect x="1.5" y="39.5" width="29" height="28" rx="3.5"/></clipPath>
<radialGradient id="lz-idl-skin" cx=".38" cy=".42" r=".75"><stop offset="0" stop-color="#F1C9AC"/><stop offset="1" stop-color="#E9BE9F"/></radialGradient>
</defs>
<style>
#lz-idle .lz-idl-glow{opacity:.62;animation:lz-idl-pulse 8s ease-in-out infinite}
#lz-idle .lz-idl-breath{animation:lz-idl-breath 5s ease-in-out infinite}
#lz-idle .lz-idl-steam{opacity:.6;transform:translate(-1px,-5px);animation:lz-idl-steam 4s ease-in-out infinite}
#lz-idle .lz-idl-steam-b{animation-delay:-1.35s}
#lz-idle .lz-idl-steam-c{animation-delay:-2.7s}
#lz-idle .lz-idl-led-disk{opacity:.35}
@keyframes lz-idl-pulse{0%,100%{opacity:.55}50%{opacity:.7}}
@keyframes lz-idl-breath{0%,100%{transform:translateY(0)}50%{transform:translateY(-1px)}}
@keyframes lz-idl-steam{0%{transform:translate(0,5px);opacity:0}18%{opacity:.7}65%{opacity:.4}100%{transform:translate(-3px,-14px);opacity:0}}
@media (prefers-reduced-motion: reduce){#lz-idle *{animation:none !important}}
</style>

<g id="lz-idl-room">
<rect width="640" height="340" fill="url(#lz-idl-wallg)"/>
<path d="M0 60 H516 M0 130 H516" stroke="#B89A6C" stroke-width="1" opacity=".35"/>
<g id="lz-idl-frame"><rect x="96" y="38" width="64" height="54" rx="2" fill="#5C3B22" stroke="#2A1D14" stroke-width="2" stroke-linejoin="round"/><rect x="103" y="45" width="50" height="40" fill="#F5ECD7" stroke="#2A1D14" stroke-width="1.2"/><rect x="108" y="50" width="40" height="30" fill="#D8D2B8"/><path d="M108 74 Q120 62 130 70 Q140 62 148 68 V80 H108Z" fill="#3E7259"/><path d="M108 78 Q124 72 148 77 V80 H108Z" fill="#2F5A45"/><circle cx="138" cy="59" r="4" fill="#D9A441"/><rect x="108" y="50" width="40" height="30" fill="none" stroke="#2A1D14" stroke-width="1"/></g>
<g id="lz-idl-clock"><circle cx="372" cy="62" r="21" fill="#D9A441" stroke="#2A1D14" stroke-width="2"/><circle cx="372" cy="62" r="16.5" fill="#FBF6EA" stroke="#2A1D14" stroke-width="1.2"/><path d="M372 47.5 V51 M372 73 V76.5 M357.5 62 H361 M383 62 H386.5" stroke="#2A1D14" stroke-width="1.6" stroke-linecap="round"/><path d="M372 62 L378 56 M372 62 V52" stroke="#2A1D14" stroke-width="1.8" stroke-linecap="round"/><circle cx="372" cy="62" r="1.8" fill="#7E2626"/></g>
<rect x="0" y="244" width="516" height="96" fill="#4A301D"/>
<rect x="0" y="244" width="516" height="9" fill="#7A5030"/><rect x="0" y="244" width="516" height="2.5" fill="#9A6A3F"/><rect x="0" y="252" width="516" height="1.6" fill="#2A1B11" opacity=".6"/>
<g fill="#55371F" stroke="#3A2618" stroke-width="1.4"><rect x="12" y="262" width="74" height="58"/><rect x="98" y="262" width="74" height="58"/><rect x="184" y="262" width="74" height="58"/><rect x="270" y="262" width="74" height="58"/><rect x="356" y="262" width="74" height="58"/><rect x="442" y="262" width="66" height="58"/></g>
<rect x="0" y="324" width="516" height="16" fill="#3A2618"/><rect x="0" y="324" width="516" height="2" fill="#5C3B22"/>
<rect x="0" y="340" width="640" height="60" fill="url(#lz-idl-floorg)"/>
<rect x="0" y="339" width="640" height="2" fill="#2A1B11"/>
<g stroke="#4A301D" stroke-width="1" opacity=".55"><path d="M0 354 H640 M0 369 H640 M0 385 H640"/><path d="M70 340 V354 M250 340 V354 M430 340 V354 M570 340 V354 M30 354 V369 M180 354 V369 M340 354 V369 M510 354 V369 M110 369 V385 M290 369 V385 M470 369 V385 M600 369 V385 M60 385 V400 M210 385 V400 M390 385 V400 M550 385 V400"/></g>
<g id="lz-idl-shelf">
<rect x="516" y="0" width="124" height="340" fill="#2A1B11"/>
<path fill="#283C5E" d="M527 30h6v66h-6zM592 41h8v55h-8zM627 41h7v55h-7zM613 108h6v60h-6zM546 179h9v61h-9zM579 250h7v62h-7zM628 251h7v61h-7z"/>
<path fill="#1D2D49" d="M531 30h2v66h-2zM598 41h2v55h-2zM632 41h2v55h-2zM617 108h2v60h-2zM553 179h2v61h-2zM584 250h2v62h-2zM633 251h2v61h-2z"/>
<path fill="#D9A441" d="M527 36h4v1.4h-4zM592 47h6v1.4h-6zM627 47h5v1.4h-5zM613 114h4v1.4h-4zM546 185h7v1.4h-7zM579 256h5v1.4h-5z"/>
<path fill="#4B5663" d="M533 43h9v53h-9zM555 193h9v47h-9zM583 173h12v67h-12zM586 264h9v48h-9zM603 253h11v59h-11z"/>
<path fill="#38414C" d="M540 43h2v53h-2zM562 193h2v47h-2zM593 173h2v67h-2zM593 264h2v48h-2zM612 253h2v59h-2z"/>
<path fill="#D9A441" d="M533 49h7v1.4h-7zM555 199h7v1.4h-7zM583 179h10v1.4h-10zM603 259h9v1.4h-9z"/>
<path fill="#6B4A2E" d="M542 36h10v60h-10zM584 43h8v53h-8zM590 103h12v65h-12zM619 117h10v51h-10zM527 252h12v60h-12z"/>
<path fill="#4F3621" d="M550 36h2v60h-2zM590 43h2v53h-2zM600 103h2v65h-2zM627 117h2v51h-2zM537 252h2v60h-2z"/>
<path fill="#D9A441" d="M542 42h8v1.4h-8zM584 49h6v1.4h-6zM619 123h8v1.4h-8zM527 258h10v1.4h-10z"/>
<path fill="#7E2626" d="M552 35h10v61h-10zM600 31h10v65h-10zM572 119h8v49h-8zM602 116h11v52h-11zM527 183h7v57h-7zM573 174h10v66h-10zM571 249h8v63h-8z"/>
<path fill="#5E1B1B" d="M560 35h2v61h-2zM608 31h2v65h-2zM578 119h2v49h-2zM611 116h2v52h-2zM532 183h2v57h-2zM581 174h2v66h-2zM577 249h2v63h-2z"/>
<path fill="#D9A441" d="M552 41h8v1.4h-8zM600 37h8v1.4h-8zM572 125h6v1.4h-6zM602 122h9v1.4h-9zM527 189h5v1.4h-5zM571 255h6v1.4h-6z"/>
<path fill="#2F5A45" d="M562 32h12v64h-12zM610 41h9v55h-9zM561 103h11v65h-11zM564 193h9v47h-9zM549 255h12v57h-12z"/>
<path fill="#24473A" d="M572 32h2v64h-2zM617 41h2v55h-2zM570 103h2v65h-2zM571 193h2v47h-2zM559 255h2v57h-2z"/>
<path fill="#B9862C" d="M574 36h10v60h-10zM561 255h10v57h-10z"/>
<path fill="#8F6720" d="M582 36h2v60h-2zM569 255h2v57h-2z"/>
<path fill="#D9A441" d="M610 47h7v1.4h-7zM561 109h9v1.4h-9zM564 199h7v1.4h-7zM549 261h10v1.4h-10zM561 261h8v1.4h-8z"/>
<path fill="#C29466" d="M619 42h8v54h-8zM527 110h8v58h-8zM535 103h9v65h-9z"/>
<path fill="#9A7048" d="M625 42h2v54h-2zM533 110h2v58h-2zM542 103h2v65h-2z"/>
<path fill="#D9A441" d="M619 48h6v1.4h-6zM535 109h7v1.4h-7z"/>
<path fill="#3E4A2A" d="M544 107h9v61h-9zM534 194h12v46h-12zM622 253h6v59h-6z"/>
<path fill="#2D371F" d="M551 107h2v61h-2zM544 194h2v46h-2zM626 253h2v59h-2z"/>
<path fill="#D9A441" d="M544 113h7v1.4h-7zM622 259h4v1.4h-4z"/>
<path fill="#553553" d="M553 109h8v59h-8zM595 175h10v65h-10zM605 182h11v58h-11z"/>
<path fill="#3F263E" d="M559 109h2v59h-2zM603 175h2v65h-2zM614 182h2v58h-2z"/>
<path fill="#D9A441" d="M553 115h6v1.4h-6zM595 181h8v1.4h-8zM605 188h9v1.4h-9z"/>
<path fill="#2B6266" d="M580 119h10v49h-10zM616 178h8v62h-8zM539 263h10v49h-10z"/>
<path fill="#204C4F" d="M588 119h2v49h-2zM622 178h2v62h-2zM547 263h2v49h-2z"/>
<path fill="#D9A441" d="M580 125h8v1.4h-8zM616 184h6v1.4h-6zM539 269h8v1.4h-8z"/>
<g fill="#7A5030" stroke="#2A1D14" stroke-width="1.4"><rect x="525" y="96" width="115" height="7"/><rect x="525" y="168" width="115" height="7"/><rect x="525" y="240" width="115" height="7"/><rect x="525" y="312" width="115" height="7"/></g>
<g fill="#9A6A3F"><rect x="525" y="96" width="115" height="2"/><rect x="525" y="168" width="115" height="2"/><rect x="525" y="240" width="115" height="2"/><rect x="525" y="312" width="115" height="2"/></g>
<g fill="#000" opacity=".22"><rect x="525" y="103" width="115" height="6"/><rect x="525" y="175" width="115" height="6"/><rect x="525" y="247" width="115" height="6"/><rect x="525" y="319" width="115" height="6"/></g>
<rect x="525" y="319" width="115" height="21" fill="#5C3B22" stroke="#2A1D14" stroke-width="1.4"/><rect x="533" y="324" width="48" height="12" fill="#6B4528" stroke="#2A1D14" stroke-width="1"/><rect x="586" y="324" width="48" height="12" fill="#6B4528" stroke="#2A1D14" stroke-width="1"/><circle cx="578" cy="330" r="1.8" fill="#D9A441"/><circle cx="589" cy="330" r="1.8" fill="#D9A441"/>
<rect x="516" y="0" width="9" height="340" fill="#3A2618" stroke="#2A1D14" stroke-width="1.6"/><rect x="518" y="0" width="2" height="340" fill="#5C3B22"/>
</g>
<ellipse cx="300" cy="386" rx="190" ry="9" fill="#2A1B11" opacity=".35"/>
</g>

<g id="lz-idl-desk">
<g id="lz-idl-desk-pedestal">
<rect x="14" y="280" width="174" height="102" fill="#7A5030" stroke="#2A1D14" stroke-width="2" stroke-linejoin="round"/>
<rect x="22" y="288" width="158" height="38" rx="1.5" fill="#8A5C37" stroke="#5C3B22" stroke-width="1.6"/><rect x="22" y="332" width="158" height="42" rx="1.5" fill="#8A5C37" stroke="#5C3B22" stroke-width="1.6"/>
<rect x="30" y="294" width="142" height="26" fill="none" stroke="#6B4528" stroke-width="1.2"/><rect x="30" y="338" width="142" height="30" fill="none" stroke="#6B4528" stroke-width="1.2"/>
<rect x="88" y="304" width="26" height="5" rx="2.5" fill="#D9A441" stroke="#2A1D14" stroke-width="1.2"/><circle cx="91" cy="306.5" r="1.4" fill="#A87A22"/><circle cx="111" cy="306.5" r="1.4" fill="#A87A22"/>
<rect x="88" y="351" width="26" height="5" rx="2.5" fill="#D9A441" stroke="#2A1D14" stroke-width="1.2"/><circle cx="91" cy="353.5" r="1.4" fill="#A87A22"/><circle cx="111" cy="353.5" r="1.4" fill="#A87A22"/>
<rect x="14" y="376" width="174" height="6" fill="#5C3B22"/>
</g>
<rect x="490" y="280" width="20" height="102" fill="#7A5030" stroke="#2A1D14" stroke-width="2"/><rect x="494" y="280" width="4" height="102" fill="#9A6A3F" opacity=".7"/>
<rect x="188" y="280" width="302" height="22" fill="#2A1B11" opacity=".28"/>
<rect x="0" y="250" width="512" height="20" fill="#9A6A3F" stroke="#2A1D14" stroke-width="2" stroke-linejoin="round"/>
<path d="M6 256 H500 M18 262 H470 M40 267 H300" stroke="#8A5C37" stroke-width="1" opacity=".7"/>
<rect x="0" y="270" width="512" height="10" fill="#7A5030" stroke="#2A1D14" stroke-width="2"/><rect x="0" y="278" width="512" height="2" fill="#5C3B22"/><rect x="0" y="251.5" width="512" height="2" fill="#C8925A" opacity=".6"/>
<g id="lz-idl-desk-books"><rect x="26" y="253" width="62" height="12" fill="#7E2626" stroke="#2A1D14" stroke-width="1.6"/><rect x="26" y="253" width="62" height="2.5" fill="#5E1B1B"/><rect x="34" y="257" width="26" height="1.6" fill="#D9A441"/><rect x="32" y="243" width="52" height="10" fill="#283C5E" stroke="#2A1D14" stroke-width="1.6"/><rect x="38" y="246" width="20" height="1.6" fill="#E8C27A"/><rect x="30" y="233.5" width="46" height="9.5" fill="#B9862C" stroke="#2A1D14" stroke-width="1.6"/><rect x="36" y="237" width="14" height="1.6" fill="#5E1B1B"/><rect x="73" y="233.5" width="3" height="9.5" fill="#8F6720"/></g>
<g id="lz-idl-desk-mug"><path d="M98 247 H114 L113 264 Q113 266 111 266 H101 Q99 266 99 264 Z" fill="#F5ECD7" stroke="#2A1D14" stroke-width="1.6" stroke-linejoin="round"/><path d="M114 251 Q121 251 120 257 Q119 261 113.5 260.5" fill="none" stroke="#2A1D14" stroke-width="1.6"/><path d="M99 254 H113.6" stroke="#C6B893" stroke-width="1.2"/><path d="M101 247 L97 228" stroke="#2A1D14" stroke-width="3.4" stroke-linecap="round"/><path d="M101 247 L97 228" stroke="#283C5E" stroke-width="1.6" stroke-linecap="round"/><path d="M105 247 L106 224" stroke="#2A1D14" stroke-width="3.4" stroke-linecap="round"/><path d="M105 247 L106 224" stroke="#EDB82E" stroke-width="1.6" stroke-linecap="round"/><path d="M109 247 L116 227" stroke="#2A1D14" stroke-width="3.4" stroke-linecap="round"/><path d="M109 247 L116 227" stroke="#2A1D14" stroke-width="1.6" stroke-linecap="round"/><path d="M107 247 L111 220" stroke="#2A1D14" stroke-width="5" stroke-linecap="round"/><path d="M107 247 L111 220" stroke="#C62828" stroke-width="3" stroke-linecap="round"/><path d="M110.8 221.5 L111.3 218" stroke="#A51F1F" stroke-width="3" stroke-linecap="round"/></g>
<g id="lz-idl-desk-lamp">
<path d="M489 258 Q498 250 507 258" fill="#D9A441" stroke="#2A1D14" stroke-width="1.6"/><rect x="489" y="256" width="20" height="4" rx="1.5" fill="#D9A441" stroke="#2A1D14" stroke-width="1.6"/>
<path d="M499 256 V216" stroke="#2A1D14" stroke-width="5" stroke-linecap="round"/><path d="M499 256 V216" stroke="#D9A441" stroke-width="2.6" stroke-linecap="round"/>
<path d="M484 214 Q486 193 499 192 Q512 193 514 214 Z" fill="url(#lz-idl-shadeg)" stroke="#2A1D14" stroke-width="1.8" stroke-linejoin="round"/>
<path d="M489 206 Q490 197 496 195" fill="none" stroke="#9FD3B5" stroke-width="1.6" stroke-linecap="round" opacity=".7"/>
<rect x="482" y="212" width="34" height="4" rx="1.5" fill="#D9A441" stroke="#2A1D14" stroke-width="1.4"/>
<circle cx="499" cy="190.5" r="2.2" fill="#D9A441" stroke="#2A1D14" stroke-width="1.2"/>
</g>
</g>

<g id="lz-idl-light">
<g class="lz-idl-glow">
<ellipse cx="268" cy="204" rx="130" ry="84" fill="url(#lz-idl-beamg)"/>
<ellipse cx="268" cy="202" rx="16" ry="48" fill="url(#lz-idl-edgeg)"/>
<ellipse cx="310" cy="263" rx="64" ry="9" fill="url(#lz-idl-deskg)"/>
</g>
</g>
<g id="lz-idl-pc">
<g id="lz-idl-pc-tower">
<rect x="200" y="300" width="62" height="82" rx="3" fill="url(#lz-idl-beigeb)" stroke="#2A1D14" stroke-width="2" stroke-linejoin="round"/>
<rect x="254" y="301" width="7" height="80" fill="#C6B893"/>
<rect x="207" y="308" width="44" height="14" rx="1.5" fill="#C6B893" stroke="#2A1D14" stroke-width="1.2"/><path d="M210 316 H248" stroke="#2A1D14" stroke-width="1.8" stroke-linecap="round"/><rect x="238" y="318" width="9" height="2.2" rx="1" fill="#A29372"/>
<rect x="207" y="328" width="44" height="13" rx="1.5" fill="#C6B893" stroke="#2A1D14" stroke-width="1.2"/><rect x="214" y="333" width="26" height="2.6" rx="1" fill="#2A1D14"/><rect x="243" y="334" width="5" height="3" fill="#A29372" stroke="#2A1D14" stroke-width=".8"/>
<rect x="207" y="345" width="44" height="7" rx="1.5" fill="#C6B893" stroke="#2A1D14" stroke-width="1"/>
<circle cx="216" cy="365" r="5.2" fill="#C6B893" stroke="#2A1D14" stroke-width="1.4"/><circle cx="216" cy="365" r="2" fill="#A29372" stroke="#2A1D14" stroke-width=".8"/>
<circle cx="232" cy="362" r="2.3" fill="#5FD38A" stroke="#2A1D14" stroke-width=".9"/><circle cx="232" cy="362" r="4.5" fill="#5FD38A" opacity=".25"/>
<circle cx="241" cy="362" r="2.3" fill="#C9821A" stroke="#2A1D14" stroke-width=".9"/><circle class="lz-idl-led-disk" cx="241" cy="362" r="3.6" fill="#F2B84A" fill-opacity=".75"/>
<path d="M225 371 H253 M225 374.5 H253 M225 378 H253" stroke="#A29372" stroke-width="1.4" stroke-linecap="round"/>
<rect x="200" y="300" width="62" height="24" fill="#2A1B11" opacity=".34"/>
</g>
<g id="lz-idl-pc-monitor">
<path d="M148 262 L252 262 L246 253 L154 253 Z" fill="#C6B893" stroke="#2A1D14" stroke-width="1.8" stroke-linejoin="round"/>
<rect x="172" y="247" width="56" height="7" fill="#A29372" stroke="#2A1D14" stroke-width="1.4"/>
<path d="M264 154 Q264 150 260 150 L200 148 C172 148 144 166 126 180 Q119 185 119 192 L119 230 Q119 238 126 242 L146 252 L258 252 Q264 252 264 246 Z" fill="url(#lz-idl-beigeg)" stroke="#2A1D14" stroke-width="2" stroke-linejoin="round"/>
<path d="M264 154 Q264 150 260 150 L200 148 C172 148 144 166 126 180 Q119 185 119 192 L119 230 Q119 238 126 242 L146 252 L258 252 Q264 252 264 246 Z" fill="url(#lz-idl-rearg)"/>
<path d="M262 152 L202 150 C176 150 148 167 130 180" fill="none" stroke="#FBF6EA" stroke-width="1.6" stroke-linecap="round" opacity=".7"/>
<g stroke="#8F8062" stroke-width="1.8" stroke-linecap="round"><path d="M192 154 L192 160"/><path d="M182 156 L183 162"/><path d="M172 160 L174.5 165.5"/><path d="M162 165 L165 170"/><path d="M153 171 L156.5 175.5"/><path d="M144 177.5 L148 181"/><path d="M136 184 L140 187"/></g>
<g stroke="#8F8062" stroke-width="1.6" stroke-linecap="round"><path d="M148 214 H178 M148 219 H178 M148 224 H178 M148 229 H178"/></g><path d="M190 160 C186 190 186 220 190 250" fill="none" stroke="#C6B893" stroke-width="1.4" opacity=".9"/><circle cx="222" cy="232" r="2.6" fill="#C6B893" stroke="#8F8062" stroke-width="1"/>
<path d="M238 147.5 H262 Q267.5 147.5 267.5 153 V247 Q267.5 252.5 262 252.5 H238 Q236 252.5 236 250 V150 Q236 147.5 238 147.5 Z" fill="#E6DCC3" stroke="#2A1D14" stroke-width="2" stroke-linejoin="round"/><path d="M240 150.5 H261" stroke="#FBF6EA" stroke-width="1.4" stroke-linecap="round" opacity=".8"/><path d="M239 249 H262" stroke="#A29372" stroke-width="1.4" stroke-linecap="round"/>
<path d="M262 164 Q273 201 262 238 L256.5 238 Q267 201 256.5 164 Z" fill="#10262E" stroke="#2A1D14" stroke-width="1.4" stroke-linejoin="round"/>
<path d="M262 165 Q272.5 201 262 237" fill="none" stroke="#7FD6E8" stroke-width="1.2" stroke-linecap="round"/>
<circle cx="261" cy="246" r="2.2" fill="#5FD38A" stroke="#2A1D14" stroke-width=".9"/>
</g>
<g id="lz-idl-pc-keyboard">
<path d="M276 270 L276 255 Q276 251.5 280 251.5 L366 259 Q372 259.5 372 264 L372 270 Z" fill="url(#lz-idl-beigeb)" stroke="#2A1D14" stroke-width="2" stroke-linejoin="round"/>
<g transform="rotate(5 278 252)"><g fill="#C6B893" stroke="#2A1D14" stroke-width="1"><rect x="284" y="244" width="8" height="4.6" rx="1"/><rect x="298" y="244" width="8" height="4.6" rx="1"/><rect x="312" y="244" width="8" height="4.6" rx="1"/><rect x="326" y="244" width="8" height="4.6" rx="1"/><rect x="340" y="244" width="8" height="4.6" rx="1"/><rect x="354" y="244" width="8" height="4.6" rx="1"/></g><g fill="#EDE4CE" stroke="#2A1D14" stroke-width="1.1"><rect x="280" y="248.5" width="8" height="5" rx="1"/><rect x="291" y="248.5" width="8" height="5" rx="1"/><rect x="302" y="248.5" width="8" height="5" rx="1"/><rect x="313" y="248.5" width="8" height="5" rx="1"/><rect x="324" y="248.5" width="8" height="5" rx="1"/><rect x="335" y="248.5" width="8" height="5" rx="1"/><rect x="346" y="248.5" width="8" height="5" rx="1"/><rect x="357" y="248.5" width="8" height="5" rx="1"/></g></g>
<path d="M276 262 C268 268 258 268 252 259" fill="none" stroke="#2A1D14" stroke-width="2.4" stroke-linecap="round"/><path d="M276 262 C268 268 258 268 252 259" fill="none" stroke="#A29372" stroke-width="1.2" stroke-linecap="round"/>
</g>
<g id="lz-idl-pc-mouse">
<rect x="438" y="266" width="44" height="4" rx="2" fill="#283C5E" stroke="#2A1D14" stroke-width="1.2"/>
<path d="M449 266 Q449 258 458 258 Q468 258 469 266 Z" fill="#DDD1B3" stroke="#2A1D14" stroke-width="1.4" stroke-linejoin="round"/><path d="M458 258 V262" stroke="#2A1D14" stroke-width="1"/>
<path d="M449 262 C440 262 434 256 424 258 C412 260 402 257 392 254" fill="none" stroke="#2A1D14" stroke-width="2.2" stroke-linecap="round"/><path d="M449 262 C440 262 434 256 424 258 C412 260 402 257 392 254" fill="none" stroke="#A29372" stroke-width="1" stroke-linecap="round"/>
</g>
</g>

<g id="lz-idl-louise">
<g id="lz-idl-chair">
<path d="M405 312V362" stroke="#2A1D14" stroke-width="9" stroke-linecap="round"/><path d="M405 312V362" stroke="#5C3B22" stroke-width="5" stroke-linecap="round"/>
<path d="M405 362L376 380M405 362L440 380" stroke="#2A1D14" stroke-width="7" stroke-linecap="round"/><path d="M405 362L376 380M405 362L440 380" stroke="#3A2618" stroke-width="3.6" stroke-linecap="round"/>
<circle cx="374" cy="382" r="3.5" fill="#2A1B11" stroke="#2A1D14" stroke-width="1.2"/><circle cx="442" cy="382" r="3.5" fill="#2A1B11" stroke="#2A1D14" stroke-width="1.2"/>
<path d="M431 306C439 276 437 248 427 228" fill="none" stroke="#2A1D14" stroke-width="10" stroke-linecap="round"/><path d="M431 306C439 276 437 248 427 228" fill="none" stroke="#5C3B22" stroke-width="6" stroke-linecap="round"/>
<rect x="413" y="222" width="30" height="9" rx="4.5" fill="#7A5030" stroke="#2A1D14" stroke-width="1.8"/><rect x="417" y="223.500" width="22" height="2" rx="1" fill="#9A6A3F"/>
<rect x="360" y="300" width="90" height="13" rx="6" fill="#3A2618" stroke="#2A1D14" stroke-width="2"/><rect x="366" y="302" width="76" height="2.600" rx="1.300" fill="#5C3B22"/>
</g>
<g id="lz-idl-booster">
<rect x="372" y="289" width="72" height="11" rx="2.500" fill="#283C5E"/><rect x="372" y="295.500" width="72" height="4.500" rx="2" fill="#1D2D49"/>
<g fill="#D9A441"><rect x="383" y="289" width="2.200" height="11"/><rect x="390" y="289" width="2.200" height="11"/><rect x="424" y="289" width="2.200" height="11"/><rect x="431" y="289" width="2.200" height="11"/></g>
<rect x="375" y="290" width="66" height="1.800" rx=".9" fill="#FFF" opacity=".25"/>
<rect x="378" y="279" width="58" height="10" rx="2.500" fill="#7E2626"/><rect x="378" y="285" width="58" height="4" rx="2" fill="#5E1B1B"/>
<rect x="381" y="281.300" width="52" height="5.500" fill="#F5ECD7"/><path d="M381 283.200H433M381 285H433" stroke="#D9C49E" stroke-width=".8"/>
<path d="M379 280.200H435" stroke="#D9A441" stroke-width="1"/>
</g>
<g id="lz-idl-legs">
<rect x="363" y="276" width="11" height="34" rx="5" fill="#2A222B"/><ellipse cx="366" cy="315" rx="11.500" ry="6.500" fill="#4F3621"/>
<rect x="355" y="276" width="11" height="34" rx="5" fill="#3A2F3A"/><ellipse cx="357" cy="316" rx="11.500" ry="6.500" fill="#6B4A2E"/><ellipse cx="352" cy="313" rx="3" ry="1.600" fill="#FFF" opacity=".6"/>
<path d="M362 277C362 272 366 270 374 270C384 268 392 266 402 265L418 265C430 265 436 272 434 282L370 282C365 282 362 280 362 277Z" fill="#6E2A26"/>
<path d="M418 265C430 265 436 272 434 282L408 282C414 276 416 270 414 265Z" fill="#4E1C1A"/>
</g>
<g class="lz-idl-breath" id="lz-idl-breath">
<g id="lz-idl-arm-far" stroke-linecap="round" stroke-linejoin="round" fill="none"><path d="M397 240L394 262L356 252" stroke="#24473A" stroke-width="13"/><path transform="translate(-1.2 -1)" d="M397 240L394 262L356 252" stroke="#2F5A45" stroke-width="10.5"/></g>
<g id="lz-idl-pose" transform="rotate(6 410 290)">
<g id="lz-idl-torso">
<path transform="translate(-3.200 0)" d="M352 224C347 236 351 250 358 260C364 268 366 273 372 274L410 274C419 272 420 266 418 258C416 246 408 232 394 222C380 216 364 216 352 224Z" fill="#FBF6EA"/>
<path d="M352 224C347 236 351 250 358 260C364 268 366 273 372 274L410 274C419 272 420 266 418 258C416 246 408 232 394 222C380 216 364 216 352 224Z" fill="#2F5A45"/>
<path d="M352 226C348 238 352 250 359 260C364 267 367 272 372 273L382 273C376 266 372 258 369 250C366 242 366 232 368 222Z" fill="#3E7259"/>
<path d="M394 222C408 232 416 246 418 258C420 266 419 272 410 274L398 274C405 266 405 250 398 238C394 230 392 226 388 222Z" fill="#24473A"/>
<g fill="#D9A441"><circle cx="368" cy="265" r="2.200"/><circle cx="372" cy="271" r="2.200"/><circle cx="363" cy="255" r="4.200"/></g><circle cx="363" cy="255" r="1.800" fill="#7E2626"/>
</g>
<g id="lz-idl-collar"><path transform="translate(0 2)" d="M349 227C346 234 349 242 357 246C365 246 369 239 366 231Z" fill="#D9C49E"/><path d="M349 227C346 234 349 242 357 246C365 246 369 239 366 231Z" fill="#FBF6EA"/></g>
<g id="lz-idl-head" transform="translate(294 136)">
<g id="lz-idl-glasses-far"><rect x="-7" y="40" width="20" height="28" rx="6" fill="#A9E4F2" fill-opacity=".12"/><rect x="-7" y="40" width="20" height="28" rx="6" fill="none" stroke="#5A3A22" stroke-width="5"/></g>
<path d="M32 0H68C86 0 100 14 100 32V62C100 79 88 92 70 92H34C12 92 0 82 0 60V32C0 14 14 0 32 0Z" fill="#D29C7E"/>
<g clip-path="url(#lz-idl-hc)"><path transform="translate(-3 -3.500)" d="M32 0H68C86 0 100 14 100 32V62C100 79 88 92 70 92H34C12 92 0 82 0 60V32C0 14 14 0 32 0Z" fill="url(#lz-idl-skin)"/></g>
<ellipse cx="38" cy="75" rx="8" ry="4.600" fill="#D68E7F" opacity=".45"/>
<ellipse cx="1.200" cy="76.500" rx="5" ry="4.200" fill="#D29C7E"/><ellipse cx=".3" cy="75.700" rx="3.700" ry="2.900" fill="#E9BE9F"/>
<path d="M9 82Q13.500 86.500 19 82" fill="none" stroke="#9C5A48" stroke-width="2.200" stroke-linecap="round"/>
<path id="lz-idl-glasses-arm" d="M30 43L64 44" fill="none" stroke="#5A3A22" stroke-width="4.400" stroke-linecap="round"/>
<g clip-path="url(#lz-idl-hc)">
<path d="M-10 -10H110V80C106 94 90 94 84 86C80 92 68 92 62 84C58 80 50 78 48 70C46 62 50 52 48 44C48 40 47 38 47 34C47 42 29 42 28 24C28 42 12 42 12 24C12 42 -4 42 -4 24L-10 24Z" fill="#B9B3A8"/>
<path transform="translate(-2.500 -3)" d="M-10 -10H110V80C106 94 90 94 84 86C80 92 68 92 62 84C58 80 50 78 48 70C46 62 50 52 48 44C48 40 47 38 47 34C47 42 29 42 28 24C28 42 12 42 12 24C12 42 -4 42 -4 24L-10 24Z" fill="#DCD8D0"/>
<path d="M10 20C14 8 32 3 54 4" fill="none" stroke="#FFF" stroke-width="6" stroke-linecap="round" opacity=".4"/>
</g>
<path d="M32 0H68C86 0 100 14 100 32V62C100 79 88 92 70 92H34C12 92 0 82 0 60V32C0 14 14 0 32 0Z" fill="none" stroke="#2A1D14" stroke-width="1.600" opacity=".35"/>
<g id="lz-idl-bun"><circle cx="78" cy="2" r="16" fill="#B9B3A8"/><g clip-path="url(#lz-idl-bc)"><circle cx="75" cy="-1" r="16" fill="#DCD8D0"/></g><circle cx="78" cy="2" r="16" fill="none" stroke="#2A1D14" stroke-width="1.600" opacity=".35"/><ellipse cx="71" cy="-6" rx="4.200" ry="2.600" transform="rotate(-30 71 -6)" fill="#FFF" opacity=".7"/></g>
<g id="lz-idl-pencil" transform="translate(78 2) rotate(-24)">
<path d="M-27 -3.800L-36 0L-27 3.800Z" fill="#E9BE9F"/><path d="M-33 -1.200L-36 0L-33 1.200Z" fill="#2A1D14"/>
<rect x="-27" y="-3.800" width="47" height="7.600" fill="#EDB82E"/><rect x="-27" y="0.400" width="47" height="3.400" fill="#D29A1A"/><rect x="-27" y="-3.800" width="47" height="2" fill="#FFF" opacity=".35"/>
<rect x="20" y="-3.800" width="4" height="7.600" fill="#B9B3A8"/><rect x="24" y="-3.800" width="7" height="7.600" rx="2.400" fill="#D9776B"/>
</g>
<g id="lz-idl-glasses">
<g clip-path="url(#lz-idl-pane)"><rect x="1.5" y="39.5" width="29" height="28" fill="#FFFDF7"/><g transform="translate(12.5 59.5)"><circle r="9.5" fill="#6B4A2E"/><path d="M-7.8 5.4A9.5 9.5 0 0 0 7.8 5.4A24.7 24.7 0 0 1 -7.8 5.4Z" fill="#9A6A3F"/><circle cx="-0.6" cy="0.5" r="5.2" fill="#1E130C"/><circle cx="-4.2" cy="-2.9" r="3" fill="#FFF"/><circle cx="2.6" cy="3.9" r="1.4" fill="#FFF"/></g><path d="M-2 38H34V55Q16 50 -2 55Z" fill="#E9BE9F"/><path d="M1.5 55Q16 50 30.5 55" fill="none" stroke="#B87E62" stroke-width="1.1" stroke-linecap="round"/><path d="M-2 66.5Q16 61.5 34 66.5V70H-2Z" fill="#E9BE9F"/><path d="M1.5 66.5Q16 61.5 30.5 66.5" fill="none" stroke="#B87E62" stroke-width="1" stroke-linecap="round"/></g>
<rect x="-1" y="37" width="34" height="33" rx="6" fill="#A9E4F2" fill-opacity=".12"/>
<path fill="#FFF" opacity=".35" d="M2 56L16 40H23L2 63Z"/>
<rect x="-1" y="37" width="34" height="33" rx="6" fill="none" stroke="#5A3A22" stroke-width="5"/>
<path d="M5 36H27" fill="none" stroke="#9A6A3F" stroke-width="1.600" stroke-linecap="round" opacity=".6"/>
</g>
<g id="lz-idl-chain" fill="none" stroke-linecap="round"><path d="M47 46C54 58 57 72 55 84C55 91 55 95 53 98" stroke="#D9A441" stroke-width="3"/><path d="M47 46C54 58 57 72 55 84C55 91 55 95 53 98" stroke="#E8C27A" stroke-width="4.800" stroke-dasharray="0.01 10"/></g>
</g>
</g>
<g id="lz-idl-hand-far"><g transform="translate(346 244) rotate(-70) scale(0.85)"><g fill="#C48C70"><ellipse cy="1.5" rx="8.4" ry="7.6"/><ellipse cx="-6.3" cy="-6.8" rx="2.6" ry="5" transform="rotate(-12 -6.3 -6.8)"/><ellipse cx="-2.1" cy="-8.4" rx="2.6" ry="5.2" transform="rotate(-4 -2.1 -8.4)"/><ellipse cx="2.1" cy="-8.4" rx="2.6" ry="5.2" transform="rotate(4 2.1 -8.4)"/><ellipse cx="6.3" cy="-6.8" rx="2.6" ry="5" transform="rotate(12 6.3 -6.8)"/><ellipse cx="-9" cy="2.5" rx="3.5" ry="5" transform="rotate(-30 -9 2.5)"/></g><g fill="#E2B193" transform="translate(1.3 -1.3)"><ellipse cy="1.5" rx="8.4" ry="7.6"/><ellipse cx="-6.3" cy="-6.8" rx="2.6" ry="5" transform="rotate(-12 -6.3 -6.8)"/><ellipse cx="-2.1" cy="-8.4" rx="2.6" ry="5.2" transform="rotate(-4 -2.1 -8.4)"/><ellipse cx="2.1" cy="-8.4" rx="2.6" ry="5.2" transform="rotate(4 2.1 -8.4)"/><ellipse cx="6.3" cy="-6.8" rx="2.6" ry="5" transform="rotate(12 6.3 -6.8)"/><ellipse cx="-9" cy="2.5" rx="3.5" ry="5" transform="rotate(-30 -9 2.5)"/></g></g></g>
<g transform="translate(326 246) scale(1.15) translate(-342 -242)"><g class="lz-idl-cup"><path d="M349 238 Q358 237 357 244 Q356 250 348 249" fill="none" stroke="#2A1D14" stroke-width="3.6" stroke-linecap="round"/><path d="M349 238 Q358 237 357 244 Q356 250 348 249" fill="none" stroke="#F5ECD7" stroke-width="1.7" stroke-linecap="round"/><path d="M329 233 H351 L349 248 Q348.5 251 345.5 251 H334.5 Q331.5 251 331 248 Z" fill="#F5ECD7" stroke="#2A1D14" stroke-width="1.7" stroke-linejoin="round"/><path d="M330.4 241 H349.8" stroke="#7E2626" stroke-width="2.2"/><path d="M331.8 235 L333 247" stroke="#FFFFFF" stroke-width="1.2" stroke-linecap="round" opacity=".6"/><ellipse cx="340" cy="233" rx="11" ry="2.7" fill="#E8DCC0" stroke="#2A1D14" stroke-width="1.5"/><ellipse cx="340" cy="233.4" rx="8.6" ry="1.9" fill="#A8641F"/><path d="M335 233 Q340 232 345 233.2" stroke="#C98A3E" stroke-width=".8" fill="none" stroke-linecap="round"/></g></g>
<g id="lz-idl-arm-near" stroke-linecap="round" stroke-linejoin="round" fill="none"><path d="M387 238L380 262L352 257" stroke="#24473A" stroke-width="14"/><path transform="translate(-1.2 -1)" d="M387 238L380 262L352 257" stroke="#2F5A45" stroke-width="10.5"/><path d="M356 257.4L348 256.2" stroke="#FBF6EA" stroke-width="14.5" stroke-linecap="butt"/><g transform="translate(335 253) rotate(-60) scale(0.9)"><g fill="#D29C7E"><ellipse cy="1.5" rx="8.4" ry="7.6"/><ellipse cx="-6.3" cy="-6.8" rx="2.6" ry="5" transform="rotate(-12 -6.3 -6.8)"/><ellipse cx="-2.1" cy="-8.4" rx="2.6" ry="5.2" transform="rotate(-4 -2.1 -8.4)"/><ellipse cx="2.1" cy="-8.4" rx="2.6" ry="5.2" transform="rotate(4 2.1 -8.4)"/><ellipse cx="6.3" cy="-6.8" rx="2.6" ry="5" transform="rotate(12 6.3 -6.8)"/><ellipse cx="-9" cy="2.5" rx="3.5" ry="5" transform="rotate(-30 -9 2.5)"/></g><g fill="#E9BE9F" transform="translate(1.3 -1.3)"><ellipse cy="1.5" rx="8.4" ry="7.6"/><ellipse cx="-6.3" cy="-6.8" rx="2.6" ry="5" transform="rotate(-12 -6.3 -6.8)"/><ellipse cx="-2.1" cy="-8.4" rx="2.6" ry="5.2" transform="rotate(-4 -2.1 -8.4)"/><ellipse cx="2.1" cy="-8.4" rx="2.6" ry="5.2" transform="rotate(4 2.1 -8.4)"/><ellipse cx="6.3" cy="-6.8" rx="2.6" ry="5" transform="rotate(12 6.3 -6.8)"/><ellipse cx="-9" cy="2.5" rx="3.5" ry="5" transform="rotate(-30 -9 2.5)"/></g></g></g>
<g transform="translate(328 246) scale(1.15 .62) translate(-342 -242)"><path class="lz-idl-steam lz-idl-steam-a" d="M338 226 C334 220 342 216 338 209 C335 205 340 201 338 197" fill="none" stroke="#FFF8E8" stroke-width="2.2" stroke-linecap="round"/><path class="lz-idl-steam lz-idl-steam-b" d="M344 226 C341 221 347 217 344 211 C342 207 346 203 344 199" fill="none" stroke="#FFF8E8" stroke-width="2.2" stroke-linecap="round"/><path class="lz-idl-steam lz-idl-steam-c" d="M333 227 C330 222 335 218 332 212 C330 208 333 205 332 201" fill="none" stroke="#FFF8E8" stroke-width="2.2" stroke-linecap="round"/></g>
</g>
</g>

<g id="lz-idl-lamp"><rect width="640" height="400" fill="url(#lz-idl-lampg)"/><circle cx="500" cy="212" r="70" fill="url(#lz-idl-lampg2)"/></g>
</svg>
