<svg xmlns="http://www.w3.org/2000/svg" viewBox="0 0 640 400" id="lz-shelving" class="lz-scene" role="img" aria-labelledby="lz-shelving-title">
<title id="lz-shelving-title">Louise filling her book cart with finished research</title>
<!--
  lz-shelving: Louise filling her book cart. Same room, desk and computer as lz-researching (same pixels); only Louise, the cart and
  the desk stack change.
  Shot: the beige monitor stands on the desk at the left, idling with a dim glow. Louise is the standing vinyl-toy profile figure: the
  researching head (same pixels) on a small standing body. Head box 100 x 92 over a body about 48 front to back: shoes, short legs,
  an A-line oxblood skirt (y 321 to 354), a bottle-green cardigan over a cream blouse (y 283 to 326), stubby sleeve arms with the
  door's mitts. Feet on the floor at y 384 (body axis x 469), crown y 194, bun and pencil above. No interior linework on the body: flat
  fills, one shade shape per part, light from the upper left. The desk top is level with her head, so she cannot reach it straight:
  she tips her head back and rises 5 px to hook the book. A short stack of finished books waits on the desk (x 380 to 405) to
  her left; she turns to it, hooks the top book, lowers it, turns round (the mirror) toward the cart at her right, turns the book
  upright and slides it into the empty slot on the cart's top shelf. The still frame has her facing the cart with the book at the slot.
  Parts (all ids and rules scoped lz-shl- / #lz-shelving; the cart keeps the id lz-shelving-cart for the dashboard):
    lz-shl-room   wall, wainscot, floor line, bookshelf, frames, clock     lz-shl-desk   oak desk, books, pen mug, banker's lamp
    lz-shl-light  dim monitor glow                                         lz-shl-pc     tower, monitor, keyboard, mouse
    lz-shl-stack  the three books on the desk (lz-shl-stack-top is the one she takes)
    lz-shelving-cart  a small chunky three-shelf book cart, box x 524 to 610, y 264 to 384. Its top shelf (books y 274 to 296, board
                  to y 302) sits in the top third of the group's box (the dashboard launches flying spines from 50% across, 30% down,
                  which lands on that board); lz-shl-book-placed is the slot she fills (cart-left end)
    lz-shl-louise legs, skirt, far arm, torso, collar, head (nod), near arm, the carried book (lz-shl-book-carried)   lz-shl-lamp  warm lamp wash
  Motion (CSS only; transform and opacity only), one 3 s ease-in-out loop; every rotation is about a joint, in the figure's own
  coordinates (x 0 = body axis, y = room y), with transform-box view-box:
    .lz-shl-turn   mirror about the body axis: faces the stack (left) at the start, the cart (right) from 1.35 s, the stack again by 2.5 s
    .lz-shl-lean   waist pivot (0, 322): torso, head and arms lean toward the stack and the cart (negative = forward)
    .lz-shl-breath rises 5 px at the stack (she stretches up), settles at the cart; wraps skirt, far arm, torso, head and arms
    .lz-shl-u / .lz-shl-fo  near arm: shoulder (0, 298) and elbow (0, 330)        .lz-shl-far / .lz-shl-ff  far arm, same joints
    .lz-shl-book   the carried book sits at the palm (origin 0 0): turns from lying to upright and slides through the grip; fades in at the
                   pickup and out at the shelf
    .lz-shl-top / .lz-shl-newbook  the stack's top book and the shelved book swap by opacity (never more than 3 changes a second)
    .lz-shl-nod    head tips about the neck (-3, 286): back to look up at the stack, down to watch the slot
    .lz-shl-glow   monitor glow breathes (8 s, opacity .55 to .7)
  Reduced motion stops every animation; the un-animated pose is the still frame: the book in her hand at the cart's slot.
-->
<defs><radialGradient id="lz-shl-wallg" gradientUnits="userSpaceOnUse" cx="330" cy="140" r="440"><stop offset="0" stop-color="#D6B98D"/><stop offset=".55" stop-color="#C9A97C"/><stop offset="1" stop-color="#97774F"/></radialGradient>
<linearGradient id="lz-shl-floorg" gradientUnits="userSpaceOnUse" x1="0" y1="340" x2="0" y2="400"><stop offset="0" stop-color="#8A5E37"/><stop offset="1" stop-color="#5C3B22"/></linearGradient>
<linearGradient id="lz-shl-beigeg" gradientUnits="userSpaceOnUse" x1="0" y1="148" x2="0" y2="254"><stop offset="0" stop-color="#EDE4CE"/><stop offset=".5" stop-color="#DDD1B3"/><stop offset="1" stop-color="#C6B893"/></linearGradient>
<linearGradient id="lz-shl-beigeb" x1="0" y1="0" x2="0" y2="1"><stop offset="0" stop-color="#EDE4CE"/><stop offset=".55" stop-color="#DDD1B3"/><stop offset="1" stop-color="#C6B893"/></linearGradient>
<linearGradient id="lz-shl-rearg" gradientUnits="userSpaceOnUse" x1="118" y1="0" x2="215" y2="0"><stop offset="0" stop-color="#A29372" stop-opacity=".75"/><stop offset="1" stop-color="#A29372" stop-opacity="0"/></linearGradient>
<radialGradient id="lz-shl-beamg"><stop offset="0" stop-color="#CFF2FA" stop-opacity=".8"/><stop offset=".25" stop-color="#A9E4F2" stop-opacity=".45"/><stop offset=".55" stop-color="#A9E4F2" stop-opacity=".16"/><stop offset="1" stop-color="#A9E4F2" stop-opacity="0"/></radialGradient>
<radialGradient id="lz-shl-edgeg" gradientUnits="userSpaceOnUse" cx="268" cy="204" r="30"><stop offset="0" stop-color="#E6FAFF" stop-opacity=".9"/><stop offset="1" stop-color="#7FD6E8" stop-opacity="0"/></radialGradient>
<radialGradient id="lz-shl-deskg" gradientUnits="userSpaceOnUse" cx="300" cy="262" r="80"><stop offset="0" stop-color="#A9E4F2" stop-opacity=".3"/><stop offset="1" stop-color="#A9E4F2" stop-opacity="0"/></radialGradient>
<radialGradient id="lz-shl-lampg" gradientUnits="userSpaceOnUse" cx="610" cy="0" r="470"><stop offset="0" stop-color="#F2C46B" stop-opacity=".36"/><stop offset=".6" stop-color="#F2C46B" stop-opacity=".12"/><stop offset="1" stop-color="#F2C46B" stop-opacity="0"/></radialGradient>
<radialGradient id="lz-shl-lampg2" gradientUnits="userSpaceOnUse" cx="500" cy="212" r="70"><stop offset="0" stop-color="#FFE2A0" stop-opacity=".4"/><stop offset="1" stop-color="#FFE2A0" stop-opacity="0"/></radialGradient>
<linearGradient id="lz-shl-shadeg" x1="0" y1="0" x2="1" y2="0"><stop offset="0" stop-color="#24473A"/><stop offset=".45" stop-color="#3E7259"/><stop offset="1" stop-color="#2F5A45"/></linearGradient>
<clipPath id="lz-shl-hc"><path d="M32 0H68C86 0 100 14 100 32V62C100 79 88 92 70 92H34C12 92 0 82 0 60V32C0 14 14 0 32 0Z"/></clipPath>
<clipPath id="lz-shl-bc"><circle cx="78" cy="2" r="16"/></clipPath>
<clipPath id="lz-shl-pane"><rect x="1.5" y="39.5" width="29" height="28" rx="3.5"/></clipPath>
<radialGradient id="lz-shl-skin" cx=".38" cy=".42" r=".75"><stop offset="0" stop-color="#F1C9AC"/><stop offset="1" stop-color="#E9BE9F"/></radialGradient>
</defs>
<style>
#lz-shelving .lz-shl-glow{opacity:.62;animation:lz-shl-pulse 8s ease-in-out infinite}
#lz-shelving .lz-shl-led-disk{opacity:.35}
#lz-shelving .lz-shl-turn{transform:scale(1,1);animation:lz-shl-turn 3s ease-in-out infinite}
#lz-shelving .lz-shl-lean{transform-box:view-box;transform-origin:0px 322px;transform:rotate(-6deg);animation:lz-shl-lean 3s ease-in-out infinite}
#lz-shelving .lz-shl-breath{transform:translateY(0px);animation:lz-shl-breath 3s ease-in-out infinite}
#lz-shelving .lz-shl-far{transform-box:view-box;transform-origin:0px 298px;transform:rotate(55.7deg);animation:lz-shl-far 3s ease-in-out infinite}
#lz-shelving .lz-shl-ff{transform-box:view-box;transform-origin:0px 330px;transform:rotate(75.1deg);animation:lz-shl-ff 3s ease-in-out infinite}
#lz-shelving .lz-shl-nod{transform-box:view-box;transform-origin:-3px 286px;transform:rotate(-3deg);animation:lz-shl-nod 3s ease-in-out infinite}
#lz-shelving .lz-shl-u{transform-box:view-box;transform-origin:0px 298px;transform:rotate(89deg);animation:lz-shl-u 3s ease-in-out infinite}
#lz-shelving .lz-shl-fo{transform-box:view-box;transform-origin:0px 330px;transform:rotate(28.4deg);animation:lz-shl-fo 3s ease-in-out infinite}
#lz-shelving .lz-shl-book{transform-box:view-box;transform-origin:0px 0px;transform:rotate(-111.4deg) translate(-2.5px,-4px);opacity:1;animation:lz-shl-book 3s ease-in-out infinite}
#lz-shelving .lz-shl-top{opacity:0;animation:lz-shl-top 3s ease-in-out infinite}
#lz-shelving .lz-shl-newbook{opacity:0;animation:lz-shl-new 3s ease-in-out infinite}
@keyframes lz-shl-pulse{0%,100%{opacity:.55}50%{opacity:.7}}
@keyframes lz-shl-turn{0%{transform:scale(-1,1)}14%{transform:scale(-1,1)}18%{transform:scale(-1,1)}21.33%{transform:scale(-1,1)}33.33%{transform:scale(-1,1)}45%{transform:scale(1,1)}55%{transform:scale(1,1)}61.67%{transform:scale(1,1)}66.67%{transform:scale(1,1)}68%{transform:scale(1,1)}71.67%{transform:scale(1,1)}84%{transform:scale(-1,1)}100%{transform:scale(-1,1)}}
@keyframes lz-shl-lean{0%{transform:rotate(-3deg)}14%{transform:rotate(-10deg)}18%{transform:rotate(-10deg)}21.33%{transform:rotate(-10deg)}33.33%{transform:rotate(-6deg)}45%{transform:rotate(-6deg)}55%{transform:rotate(-6deg)}61.67%{transform:rotate(-6deg)}66.67%{transform:rotate(-7deg)}68%{transform:rotate(-7deg)}71.67%{transform:rotate(-4deg)}84%{transform:rotate(-3deg)}100%{transform:rotate(-3deg)}}
@keyframes lz-shl-breath{0%{transform:translateY(0px)}14%{transform:translateY(-5px)}18%{transform:translateY(-5px)}21.33%{transform:translateY(-5px)}33.33%{transform:translateY(0px)}45%{transform:translateY(0px)}55%{transform:translateY(0px)}61.67%{transform:translateY(0px)}66.67%{transform:translateY(0px)}68%{transform:translateY(0px)}71.67%{transform:translateY(0px)}84%{transform:translateY(0px)}100%{transform:translateY(0px)}}
@keyframes lz-shl-far{0%{transform:rotate(-43.4deg)}14%{transform:rotate(86.8deg)}18%{transform:rotate(86.8deg)}21.33%{transform:rotate(86.8deg)}33.33%{transform:rotate(32.4deg)}45%{transform:rotate(32.4deg)}55%{transform:rotate(47.2deg)}61.67%{transform:rotate(55.7deg)}66.67%{transform:rotate(58.2deg)}68%{transform:rotate(58.2deg)}71.67%{transform:rotate(36.1deg)}84%{transform:rotate(-43.4deg)}100%{transform:rotate(-43.4deg)}}
@keyframes lz-shl-ff{0%{transform:rotate(111.5deg)}14%{transform:rotate(95deg)}18%{transform:rotate(95deg)}21.33%{transform:rotate(95deg)}33.33%{transform:rotate(117.9deg)}45%{transform:rotate(117.9deg)}55%{transform:rotate(91.1deg)}61.67%{transform:rotate(75.1deg)}66.67%{transform:rotate(70.3deg)}68%{transform:rotate(70.3deg)}71.67%{transform:rotate(97.8deg)}84%{transform:rotate(111.5deg)}100%{transform:rotate(111.5deg)}}
@keyframes lz-shl-nod{0%{transform:rotate(0deg)}14%{transform:rotate(36deg)}18%{transform:rotate(36deg)}21.33%{transform:rotate(36deg)}33.33%{transform:rotate(4deg)}45%{transform:rotate(4deg)}55%{transform:rotate(0deg)}61.67%{transform:rotate(-3deg)}66.67%{transform:rotate(-4deg)}68%{transform:rotate(-4deg)}71.67%{transform:rotate(-1deg)}84%{transform:rotate(0deg)}100%{transform:rotate(0deg)}}
@keyframes lz-shl-u{0%{transform:rotate(-16.6deg)}14%{transform:rotate(114.5deg)}18%{transform:rotate(114.5deg)}21.33%{transform:rotate(114.5deg)}33.33%{transform:rotate(58.5deg)}45%{transform:rotate(58.5deg)}55%{transform:rotate(76.9deg)}61.67%{transform:rotate(89deg)}66.67%{transform:rotate(96deg)}68%{transform:rotate(96deg)}71.67%{transform:rotate(54.1deg)}84%{transform:rotate(-16.6deg)}100%{transform:rotate(-16.6deg)}}
@keyframes lz-shl-fo{0%{transform:rotate(92.3deg)}14%{transform:rotate(38.5deg)}18%{transform:rotate(38.5deg)}21.33%{transform:rotate(38.5deg)}33.33%{transform:rotate(94.2deg)}45%{transform:rotate(94.2deg)}55%{transform:rotate(53.4deg)}61.67%{transform:rotate(28.4deg)}66.67%{transform:rotate(14.6deg)}68%{transform:rotate(14.6deg)}71.67%{transform:rotate(78.5deg)}84%{transform:rotate(92.3deg)}100%{transform:rotate(92.3deg)}}
@keyframes lz-shl-book{0%{transform:rotate(17.3deg) translate(-13px,21px);opacity:0}14%{transform:rotate(-53deg) translate(-13px,21px);opacity:0}18%{transform:rotate(-53deg) translate(-13px,21px);opacity:1}21.33%{transform:rotate(-53deg) translate(-13px,21px);opacity:1}33.33%{transform:rotate(-71.8deg) translate(-6px,10px);opacity:1}45%{transform:rotate(-71.8deg) translate(-6px,10px);opacity:1}55%{transform:rotate(-99.3deg) translate(-3px,-1px);opacity:1}61.67%{transform:rotate(-111.4deg) translate(-2.5px,-4px);opacity:1}66.67%{transform:rotate(-103.6deg) translate(-2.5px,-4px);opacity:1}68%{transform:rotate(-103.6deg) translate(-2.5px,-4px);opacity:0}71.67%{transform:rotate(-128.6deg) translate(-2.5px,-4px);opacity:0}84%{transform:rotate(-72.7deg) translate(-2.5px,-4px);opacity:0}100%{transform:rotate(17.3deg) translate(-13px,21px);opacity:0}}
@keyframes lz-shl-top{0%,14%{opacity:1}18%,92%{opacity:0}99%,100%{opacity:1}}
@keyframes lz-shl-new{0%,65%{opacity:0}68%,92%{opacity:1}99%,100%{opacity:0}}
@media (prefers-reduced-motion: reduce){#lz-shelving *{animation:none !important}}
</style>
<g id="lz-shl-room">
<rect width="640" height="340" fill="url(#lz-shl-wallg)"/>
<path d="M0 60 H516 M0 130 H516" stroke="#B89A6C" stroke-width="1" opacity=".35"/>
<g id="lz-shl-frame"><rect x="96" y="38" width="64" height="54" rx="2" fill="#5C3B22" stroke="#2A1D14" stroke-width="2" stroke-linejoin="round"/><rect x="103" y="45" width="50" height="40" fill="#F5ECD7" stroke="#2A1D14" stroke-width="1.2"/><rect x="108" y="50" width="40" height="30" fill="#D8D2B8"/><path d="M108 74 Q120 62 130 70 Q140 62 148 68 V80 H108Z" fill="#3E7259"/><path d="M108 78 Q124 72 148 77 V80 H108Z" fill="#2F5A45"/><circle cx="138" cy="59" r="4" fill="#D9A441"/><rect x="108" y="50" width="40" height="30" fill="none" stroke="#2A1D14" stroke-width="1"/></g>
<g id="lz-shl-clock"><circle cx="372" cy="62" r="21" fill="#D9A441" stroke="#2A1D14" stroke-width="2"/><circle cx="372" cy="62" r="16.5" fill="#FBF6EA" stroke="#2A1D14" stroke-width="1.2"/><path d="M372 47.5 V51 M372 73 V76.5 M357.5 62 H361 M383 62 H386.5" stroke="#2A1D14" stroke-width="1.6" stroke-linecap="round"/><path d="M372 62 L378 56 M372 62 V52" stroke="#2A1D14" stroke-width="1.8" stroke-linecap="round"/><circle cx="372" cy="62" r="1.8" fill="#7E2626"/></g>
<rect x="0" y="244" width="516" height="96" fill="#4A301D"/>
<rect x="0" y="244" width="516" height="9" fill="#7A5030"/><rect x="0" y="244" width="516" height="2.5" fill="#9A6A3F"/><rect x="0" y="252" width="516" height="1.6" fill="#2A1B11" opacity=".6"/>
<g fill="#55371F" stroke="#3A2618" stroke-width="1.4"><rect x="12" y="262" width="74" height="58"/><rect x="98" y="262" width="74" height="58"/><rect x="184" y="262" width="74" height="58"/><rect x="270" y="262" width="74" height="58"/><rect x="356" y="262" width="74" height="58"/><rect x="442" y="262" width="66" height="58"/></g>
<rect x="0" y="324" width="516" height="16" fill="#3A2618"/><rect x="0" y="324" width="516" height="2" fill="#5C3B22"/>
<rect x="0" y="340" width="640" height="60" fill="url(#lz-shl-floorg)"/>
<rect x="0" y="339" width="640" height="2" fill="#2A1B11"/>
<g stroke="#4A301D" stroke-width="1" opacity=".55"><path d="M0 354 H640 M0 369 H640 M0 385 H640"/><path d="M70 340 V354 M250 340 V354 M430 340 V354 M570 340 V354 M30 354 V369 M180 354 V369 M340 354 V369 M510 354 V369 M110 369 V385 M290 369 V385 M470 369 V385 M600 369 V385 M60 385 V400 M210 385 V400 M390 385 V400 M550 385 V400"/></g>
<g id="lz-shl-shelf">
<rect x="516" y="0" width="124" height="340" fill="#2A1B11"/>
<path fill="#283C5E" d="M527 30h6v66h-6zM592 41h8v55h-8zM627 41h7v55h-7zM613 108h6v60h-6zM546 179h9v61h-9zM579 250h7v62h-7zM628 251h7v61h-7z"/><path fill="#4B5663" d="M533 43h9v53h-9zM555 193h9v47h-9zM583 173h12v67h-12zM586 264h9v48h-9zM603 253h11v59h-11z"/><path fill="#6B4A2E" d="M542 36h10v60h-10zM584 43h8v53h-8zM590 103h12v65h-12zM619 117h10v51h-10zM527 252h12v60h-12z"/><path fill="#7E2626" d="M552 35h10v61h-10zM600 31h10v65h-10zM572 119h8v49h-8zM602 116h11v52h-11zM527 183h7v57h-7zM573 174h10v66h-10zM571 249h8v63h-8z"/><path fill="#2F5A45" d="M562 32h12v64h-12zM610 41h9v55h-9zM561 103h11v65h-11zM564 193h9v47h-9zM549 255h12v57h-12z"/><path fill="#B9862C" d="M574 36h10v60h-10zM561 255h10v57h-10z"/><path fill="#C29466" d="M619 42h8v54h-8zM527 110h8v58h-8zM535 103h9v65h-9z"/><path fill="#3E4A2A" d="M544 107h9v61h-9zM534 194h12v46h-12zM622 253h6v59h-6z"/><path fill="#553553" d="M553 109h8v59h-8zM595 175h10v65h-10zM605 182h11v58h-11z"/><path fill="#2B6266" d="M580 119h10v49h-10zM616 178h8v62h-8zM539 263h10v49h-10z"/><path fill="#1D2D49" d="M531 30h2v66h-2zM598 41h2v55h-2zM632 41h2v55h-2zM617 108h2v60h-2zM553 179h2v61h-2zM584 250h2v62h-2zM633 251h2v61h-2z"/><path fill="#38414C" d="M540 43h2v53h-2zM562 193h2v47h-2zM593 173h2v67h-2zM593 264h2v48h-2zM612 253h2v59h-2z"/><path fill="#4F3621" d="M550 36h2v60h-2zM590 43h2v53h-2zM600 103h2v65h-2zM627 117h2v51h-2zM537 252h2v60h-2z"/><path fill="#5E1B1B" d="M560 35h2v61h-2zM608 31h2v65h-2zM578 119h2v49h-2zM611 116h2v52h-2zM532 183h2v57h-2zM581 174h2v66h-2zM577 249h2v63h-2z"/><path fill="#24473A" d="M572 32h2v64h-2zM617 41h2v55h-2zM570 103h2v65h-2zM571 193h2v47h-2zM559 255h2v57h-2z"/><path fill="#8F6720" d="M582 36h2v60h-2zM569 255h2v57h-2z"/><path fill="#9A7048" d="M625 42h2v54h-2zM533 110h2v58h-2zM542 103h2v65h-2z"/><path fill="#2D371F" d="M551 107h2v61h-2zM544 194h2v46h-2zM626 253h2v59h-2z"/><path fill="#3F263E" d="M559 109h2v59h-2zM603 175h2v65h-2zM614 182h2v58h-2z"/><path fill="#204C4F" d="M588 119h2v49h-2zM622 178h2v62h-2zM547 263h2v49h-2z"/><path fill="#D9A441" d="M527 36h4v1.4h-4zM533 49h7v1.4h-7zM542 42h8v1.4h-8zM552 41h8v1.4h-8zM584 49h6v1.4h-6zM592 47h6v1.4h-6zM600 37h8v1.4h-8zM610 47h7v1.4h-7zM619 48h6v1.4h-6zM627 47h5v1.4h-5zM535 109h7v1.4h-7zM544 113h7v1.4h-7zM553 115h6v1.4h-6zM561 109h9v1.4h-9zM572 125h6v1.4h-6zM580 125h8v1.4h-8zM602 122h9v1.4h-9zM613 114h4v1.4h-4zM619 123h8v1.4h-8zM527 189h5v1.4h-5zM546 185h7v1.4h-7zM555 199h7v1.4h-7zM564 199h7v1.4h-7zM583 179h10v1.4h-10zM595 181h8v1.4h-8zM605 188h9v1.4h-9zM616 184h6v1.4h-6zM527 258h10v1.4h-10zM539 269h8v1.4h-8zM549 261h10v1.4h-10zM561 261h8v1.4h-8zM571 255h6v1.4h-6zM579 256h5v1.4h-5zM603 259h9v1.4h-9zM622 259h4v1.4h-4z"/>
<g fill="#7A5030" stroke="#2A1D14" stroke-width="1.4"><rect x="525" y="96" width="115" height="7"/><rect x="525" y="168" width="115" height="7"/><rect x="525" y="240" width="115" height="7"/><rect x="525" y="312" width="115" height="7"/></g>
<g fill="#9A6A3F"><rect x="525" y="96" width="115" height="2"/><rect x="525" y="168" width="115" height="2"/><rect x="525" y="240" width="115" height="2"/><rect x="525" y="312" width="115" height="2"/></g>
<g fill="#000" opacity=".22"><rect x="525" y="103" width="115" height="6"/><rect x="525" y="175" width="115" height="6"/><rect x="525" y="247" width="115" height="6"/><rect x="525" y="319" width="115" height="6"/></g>
<rect x="525" y="319" width="115" height="21" fill="#5C3B22" stroke="#2A1D14" stroke-width="1.4"/><rect x="533" y="324" width="48" height="12" fill="#6B4528" stroke="#2A1D14" stroke-width="1"/><rect x="586" y="324" width="48" height="12" fill="#6B4528" stroke="#2A1D14" stroke-width="1"/><circle cx="578" cy="330" r="1.8" fill="#D9A441"/><circle cx="589" cy="330" r="1.8" fill="#D9A441"/>
<rect x="516" y="0" width="9" height="340" fill="#3A2618" stroke="#2A1D14" stroke-width="1.6"/><rect x="518" y="0" width="2" height="340" fill="#5C3B22"/>
</g>
<ellipse cx="300" cy="386" rx="190" ry="9" fill="#2A1B11" opacity=".35"/>
</g>
<g id="lz-shl-desk">
<g id="lz-shl-desk-pedestal">
<rect x="14" y="280" width="174" height="102" fill="#7A5030" stroke="#2A1D14" stroke-width="2" stroke-linejoin="round"/>
<rect x="22" y="288" width="158" height="38" rx="1.5" fill="#8A5C37" stroke="#5C3B22" stroke-width="1.6"/><rect x="22" y="332" width="158" height="42" rx="1.5" fill="#8A5C37" stroke="#5C3B22" stroke-width="1.6"/>
<rect x="30" y="294" width="142" height="26" fill="none" stroke="#6B4528" stroke-width="1.2"/><rect x="30" y="338" width="142" height="30" fill="none" stroke="#6B4528" stroke-width="1.2"/>
<rect x="88" y="304" width="26" height="5" rx="2.5" fill="#D9A441" stroke="#2A1D14" stroke-width="1.2"/><circle cx="91" cy="306.5" r="1.4" fill="#A87A22"/><circle cx="111" cy="306.5" r="1.4" fill="#A87A22"/>
<rect x="88" y="351" width="26" height="5" rx="2.5" fill="#D9A441" stroke="#2A1D14" stroke-width="1.2"/><circle cx="91" cy="353.5" r="1.4" fill="#A87A22"/><circle cx="111" cy="353.5" r="1.4" fill="#A87A22"/>
<rect x="14" y="376" width="174" height="6" fill="#5C3B22"/>
</g>
<rect x="490" y="280" width="20" height="102" fill="#7A5030" stroke="#2A1D14" stroke-width="2"/><rect x="494" y="280" width="4" height="102" fill="#9A6A3F" opacity=".7"/>
<rect x="188" y="280" width="302" height="22" fill="#2A1B11" opacity=".28"/>
<rect x="0" y="250" width="512" height="20" fill="#9A6A3F" stroke="#2A1D14" stroke-width="2" stroke-linejoin="round"/>
<path d="M6 256 H500 M18 262 H470 M40 267 H300" stroke="#8A5C37" stroke-width="1" opacity=".7"/>
<rect x="0" y="270" width="512" height="10" fill="#7A5030" stroke="#2A1D14" stroke-width="2"/><rect x="0" y="278" width="512" height="2" fill="#5C3B22"/><rect x="0" y="251.5" width="512" height="2" fill="#C8925A" opacity=".6"/>
<g id="lz-shl-desk-books"><rect x="26" y="253" width="62" height="12" fill="#7E2626" stroke="#2A1D14" stroke-width="1.6"/><rect x="26" y="253" width="62" height="2.5" fill="#5E1B1B"/><rect x="34" y="257" width="26" height="1.6" fill="#D9A441"/><rect x="32" y="243" width="52" height="10" fill="#283C5E" stroke="#2A1D14" stroke-width="1.6"/><rect x="38" y="246" width="20" height="1.6" fill="#E8C27A"/><rect x="30" y="233.5" width="46" height="9.5" fill="#B9862C" stroke="#2A1D14" stroke-width="1.6"/><rect x="36" y="237" width="14" height="1.6" fill="#5E1B1B"/><rect x="73" y="233.5" width="3" height="9.5" fill="#8F6720"/></g>
<g id="lz-shl-desk-mug"><path d="M98 247 H114 L113 264 Q113 266 111 266 H101 Q99 266 99 264 Z" fill="#F5ECD7" stroke="#2A1D14" stroke-width="1.6" stroke-linejoin="round"/><path d="M114 251 Q121 251 120 257 Q119 261 113.5 260.5" fill="none" stroke="#2A1D14" stroke-width="1.6"/><path d="M99 254 H113.6" stroke="#C6B893" stroke-width="1.2"/><path d="M101 247 L97 228" stroke="#2A1D14" stroke-width="3.4" stroke-linecap="round"/><path d="M101 247 L97 228" stroke="#283C5E" stroke-width="1.6" stroke-linecap="round"/><path d="M105 247 L106 224" stroke="#2A1D14" stroke-width="3.4" stroke-linecap="round"/><path d="M105 247 L106 224" stroke="#EDB82E" stroke-width="1.6" stroke-linecap="round"/><path d="M109 247 L116 227" stroke="#2A1D14" stroke-width="3.4" stroke-linecap="round"/><path d="M109 247 L116 227" stroke="#2A1D14" stroke-width="1.6" stroke-linecap="round"/><path d="M107 247 L111 220" stroke="#2A1D14" stroke-width="5" stroke-linecap="round"/><path d="M107 247 L111 220" stroke="#C62828" stroke-width="3" stroke-linecap="round"/><path d="M110.8 221.5 L111.3 218" stroke="#A51F1F" stroke-width="3" stroke-linecap="round"/></g>
<g id="lz-shl-desk-lamp">
<path d="M489 258 Q498 250 507 258" fill="#D9A441" stroke="#2A1D14" stroke-width="1.6"/><rect x="489" y="256" width="20" height="4" rx="1.5" fill="#D9A441" stroke="#2A1D14" stroke-width="1.6"/>
<path d="M499 256 V216" stroke="#2A1D14" stroke-width="5" stroke-linecap="round"/><path d="M499 256 V216" stroke="#D9A441" stroke-width="2.6" stroke-linecap="round"/>
<path d="M484 214 Q486 193 499 192 Q512 193 514 214 Z" fill="url(#lz-shl-shadeg)" stroke="#2A1D14" stroke-width="1.8" stroke-linejoin="round"/>
<path d="M489 206 Q490 197 496 195" fill="none" stroke="#9FD3B5" stroke-width="1.6" stroke-linecap="round" opacity=".7"/>
<rect x="482" y="212" width="34" height="4" rx="1.5" fill="#D9A441" stroke="#2A1D14" stroke-width="1.4"/>
<circle cx="499" cy="190.5" r="2.2" fill="#D9A441" stroke="#2A1D14" stroke-width="1.2"/>
</g>
</g>
<g id="lz-shl-light"><g class="lz-shl-glow"><ellipse cx="268" cy="204" rx="130" ry="84" fill="url(#lz-shl-beamg)"/><ellipse cx="268" cy="202" rx="16" ry="48" fill="url(#lz-shl-edgeg)"/><ellipse cx="310" cy="263" rx="64" ry="9" fill="url(#lz-shl-deskg)"/></g></g>
<g id="lz-shl-pc">
<g id="lz-shl-pc-tower">
<rect x="200" y="300" width="62" height="82" rx="3" fill="url(#lz-shl-beigeb)" stroke="#2A1D14" stroke-width="2" stroke-linejoin="round"/>
<rect x="254" y="301" width="7" height="80" fill="#C6B893"/>
<rect x="207" y="308" width="44" height="14" rx="1.5" fill="#C6B893" stroke="#2A1D14" stroke-width="1.2"/><path d="M210 316 H248" stroke="#2A1D14" stroke-width="1.8" stroke-linecap="round"/><rect x="238" y="318" width="9" height="2.2" rx="1" fill="#A29372"/>
<rect x="207" y="328" width="44" height="13" rx="1.5" fill="#C6B893" stroke="#2A1D14" stroke-width="1.2"/><rect x="214" y="333" width="26" height="2.6" rx="1" fill="#2A1D14"/><rect x="243" y="334" width="5" height="3" fill="#A29372" stroke="#2A1D14" stroke-width=".8"/>
<rect x="207" y="345" width="44" height="7" rx="1.5" fill="#C6B893" stroke="#2A1D14" stroke-width="1"/>
<circle cx="216" cy="365" r="5.2" fill="#C6B893" stroke="#2A1D14" stroke-width="1.4"/><circle cx="216" cy="365" r="2" fill="#A29372" stroke="#2A1D14" stroke-width=".8"/>
<circle cx="232" cy="362" r="2.3" fill="#5FD38A" stroke="#2A1D14" stroke-width=".9"/><circle cx="232" cy="362" r="4.5" fill="#5FD38A" opacity=".25"/>
<circle cx="241" cy="362" r="2.3" fill="#C9821A" stroke="#2A1D14" stroke-width=".9"/><circle class="lz-shl-led-disk" cx="241" cy="362" r="3.6" fill="#F2B84A" fill-opacity=".75"/>
<path d="M225 371 H253 M225 374.5 H253 M225 378 H253" stroke="#A29372" stroke-width="1.4" stroke-linecap="round"/>
<rect x="200" y="300" width="62" height="24" fill="#2A1B11" opacity=".34"/>
</g>
<g id="lz-shl-pc-monitor">
<path d="M148 262 L252 262 L246 253 L154 253 Z" fill="#C6B893" stroke="#2A1D14" stroke-width="1.8" stroke-linejoin="round"/>
<rect x="172" y="247" width="56" height="7" fill="#A29372" stroke="#2A1D14" stroke-width="1.4"/>
<path d="M264 154 Q264 150 260 150 L200 148 C172 148 144 166 126 180 Q119 185 119 192 L119 230 Q119 238 126 242 L146 252 L258 252 Q264 252 264 246 Z" fill="url(#lz-shl-beigeg)" stroke="#2A1D14" stroke-width="2" stroke-linejoin="round"/>
<path d="M264 154 Q264 150 260 150 L200 148 C172 148 144 166 126 180 Q119 185 119 192 L119 230 Q119 238 126 242 L146 252 L258 252 Q264 252 264 246 Z" fill="url(#lz-shl-rearg)"/>
<path d="M262 152 L202 150 C176 150 148 167 130 180" fill="none" stroke="#FBF6EA" stroke-width="1.6" stroke-linecap="round" opacity=".7"/>
<g stroke="#8F8062" stroke-width="1.8" stroke-linecap="round"><path d="M192 154 L192 160"/><path d="M182 156 L183 162"/><path d="M172 160 L174.5 165.5"/><path d="M162 165 L165 170"/><path d="M153 171 L156.5 175.5"/><path d="M144 177.5 L148 181"/><path d="M136 184 L140 187"/></g>
<g stroke="#8F8062" stroke-width="1.6" stroke-linecap="round"><path d="M148 214 H178 M148 219 H178 M148 224 H178 M148 229 H178"/></g><path d="M190 160 C186 190 186 220 190 250" fill="none" stroke="#C6B893" stroke-width="1.4" opacity=".9"/><circle cx="222" cy="232" r="2.6" fill="#C6B893" stroke="#8F8062" stroke-width="1"/>
<path d="M238 147.5 H262 Q267.5 147.5 267.5 153 V247 Q267.5 252.5 262 252.5 H238 Q236 252.5 236 250 V150 Q236 147.5 238 147.5 Z" fill="#E6DCC3" stroke="#2A1D14" stroke-width="2" stroke-linejoin="round"/><path d="M240 150.5 H261" stroke="#FBF6EA" stroke-width="1.4" stroke-linecap="round" opacity=".8"/><path d="M239 249 H262" stroke="#A29372" stroke-width="1.4" stroke-linecap="round"/>
<path d="M262 164 Q273 201 262 238 L256.5 238 Q267 201 256.5 164 Z" fill="#10262E" stroke="#2A1D14" stroke-width="1.4" stroke-linejoin="round"/>
<path d="M262 165 Q272.5 201 262 237" fill="none" stroke="#7FD6E8" stroke-width="1.2" stroke-linecap="round"/>
<circle cx="261" cy="246" r="2.2" fill="#5FD38A" stroke="#2A1D14" stroke-width=".9"/>
</g>
<g id="lz-shl-pc-keyboard">
<path d="M276 270 L276 255 Q276 251.5 280 251.5 L366 259 Q372 259.5 372 264 L372 270 Z" fill="url(#lz-shl-beigeb)" stroke="#2A1D14" stroke-width="2" stroke-linejoin="round"/>
<g transform="rotate(5 278 252)"><g fill="#C6B893" stroke="#2A1D14" stroke-width="1"><rect x="284" y="244" width="8" height="4.6" rx="1"/><rect x="298" y="244" width="8" height="4.6" rx="1"/><rect x="312" y="244" width="8" height="4.6" rx="1"/><rect x="326" y="244" width="8" height="4.6" rx="1"/><rect x="340" y="244" width="8" height="4.6" rx="1"/><rect x="354" y="244" width="8" height="4.6" rx="1"/></g><g fill="#EDE4CE" stroke="#2A1D14" stroke-width="1.1"><rect x="280" y="248.5" width="8" height="5" rx="1"/><rect x="291" y="248.5" width="8" height="5" rx="1"/><rect x="302" y="248.5" width="8" height="5" rx="1"/><rect x="313" y="248.5" width="8" height="5" rx="1"/><rect x="324" y="248.5" width="8" height="5" rx="1"/><rect x="335" y="248.5" width="8" height="5" rx="1"/><rect x="346" y="248.5" width="8" height="5" rx="1"/><rect x="357" y="248.5" width="8" height="5" rx="1"/></g></g>
<path d="M276 262 C268 268 258 268 252 259" fill="none" stroke="#2A1D14" stroke-width="2.4" stroke-linecap="round"/><path d="M276 262 C268 268 258 268 252 259" fill="none" stroke="#A29372" stroke-width="1.2" stroke-linecap="round"/>
</g>
<g id="lz-shl-pc-mouse">
<rect x="438" y="266" width="44" height="4" rx="2" fill="#283C5E" stroke="#2A1D14" stroke-width="1.2"/>
<path d="M449 266 Q449 258 458 258 Q468 258 469 266 Z" fill="#DDD1B3" stroke="#2A1D14" stroke-width="1.4" stroke-linejoin="round"/><path d="M458 258 V262" stroke="#2A1D14" stroke-width="1"/>
<path d="M449 262 C440 262 434 256 424 258 C412 260 402 257 392 254" fill="none" stroke="#2A1D14" stroke-width="2.2" stroke-linecap="round"/><path d="M449 262 C440 262 434 256 424 258 C412 260 402 257 392 254" fill="none" stroke="#A29372" stroke-width="1" stroke-linecap="round"/>
</g>
</g>
<g id="lz-shl-stack"><rect x="380" y="258" width="25" height="8" fill="#283C5E" stroke="#2A1D14" stroke-width="1.6"/><rect x="380" y="258" width="25" height="2.2" fill="#000" opacity=".22"/><rect x="384" y="261.2" width="13" height="1.6" fill="#D9A441"/><rect x="381" y="250" width="24" height="8" fill="#2F5A45" stroke="#2A1D14" stroke-width="1.6"/><rect x="381" y="250" width="24" height="2.2" fill="#000" opacity=".22"/><rect x="385" y="253.2" width="12" height="1.6" fill="#D9A441"/><g class="lz-shl-top" id="lz-shl-stack-top"><rect x="380" y="242" width="24" height="8" fill="#7E2626" stroke="#2A1D14" stroke-width="1.6"/><rect x="380" y="242" width="24" height="2.2" fill="#000" opacity=".22"/><rect x="384" y="245.2" width="12" height="1.6" fill="#D9A441"/></g></g>
<g id="lz-shelving-cart"><g stroke="#2A1D14" stroke-width="1.3"><rect x="524" y="368" width="10" height="5" fill="#A87A22"/><rect x="600" y="368" width="10" height="5" fill="#A87A22"/><circle cx="529" cy="379.5" r="4.6" fill="#3A2618"/><circle cx="605" cy="379.5" r="4.6" fill="#3A2618"/></g><circle cx="529" cy="379.5" r="1.5" fill="#A87A22"/><circle cx="605" cy="379.5" r="1.5" fill="#A87A22"/><rect x="532" y="274" width="70" height="22" fill="#8A5C37" stroke="#2A1D14" stroke-width="1.4" stroke-linejoin="round"/><rect x="532" y="302" width="70" height="26" fill="#8A5C37" stroke="#2A1D14" stroke-width="1.4" stroke-linejoin="round"/><rect x="532" y="334" width="70" height="26" fill="#8A5C37" stroke="#2A1D14" stroke-width="1.4" stroke-linejoin="round"/><rect x="542" y="279" width="10" height="17" fill="#283C5E" stroke="#2A1D14" stroke-width="1.4"/><rect x="550" y="279" width="2" height="17" fill="#000" opacity=".22"/><rect x="543.5" y="284" width="6" height="1.3" fill="#D9A441"/><rect x="552" y="276" width="8" height="20" fill="#C29466" stroke="#2A1D14" stroke-width="1.4"/><rect x="558" y="276" width="2" height="20" fill="#000" opacity=".22"/><rect x="553.5" y="281" width="4" height="1.3" fill="#D9A441"/><rect x="560" y="276" width="8" height="20" fill="#4B5663" stroke="#2A1D14" stroke-width="1.4"/><rect x="566" y="276" width="2" height="20" fill="#000" opacity=".22"/><rect x="561.5" y="281" width="4" height="1.3" fill="#D9A441"/><rect x="568" y="277" width="9" height="19" fill="#4B5663" stroke="#2A1D14" stroke-width="1.4"/><rect x="575" y="277" width="2" height="19" fill="#000" opacity=".22"/><rect x="569.5" y="282" width="5" height="1.3" fill="#D9A441"/><rect x="577" y="277" width="11" height="19" fill="#283C5E" stroke="#2A1D14" stroke-width="1.4"/><rect x="586" y="277" width="2" height="19" fill="#000" opacity=".22"/><rect x="578.5" y="282" width="7" height="1.3" fill="#D9A441"/><rect x="588" y="277" width="9" height="19" fill="#553553" stroke="#2A1D14" stroke-width="1.4"/><rect x="595" y="277" width="2" height="19" fill="#000" opacity=".22"/><rect x="589.5" y="282" width="5" height="1.3" fill="#D9A441"/><rect x="533" y="306" width="9" height="22" fill="#2F5A45" stroke="#2A1D14" stroke-width="1.4"/><rect x="540" y="306" width="2" height="22" fill="#000" opacity=".22"/><rect x="534.5" y="311" width="5" height="1.3" fill="#D9A441"/><rect x="542" y="303" width="11" height="25" fill="#B9862C" stroke="#2A1D14" stroke-width="1.4"/><rect x="551" y="303" width="2" height="25" fill="#000" opacity=".22"/><rect x="543.5" y="308" width="7" height="1.3" fill="#D9A441"/><rect x="553" y="305" width="9" height="23" fill="#553553" stroke="#2A1D14" stroke-width="1.4"/><rect x="560" y="305" width="2" height="23" fill="#000" opacity=".22"/><rect x="554.5" y="310" width="5" height="1.3" fill="#D9A441"/><rect x="562" y="306" width="10" height="22" fill="#B9862C" stroke="#2A1D14" stroke-width="1.4"/><rect x="570" y="306" width="2" height="22" fill="#000" opacity=".22"/><rect x="563.5" y="311" width="6" height="1.3" fill="#D9A441"/><rect x="572" y="303" width="11" height="25" fill="#7E2626" stroke="#2A1D14" stroke-width="1.4"/><rect x="581" y="303" width="2" height="25" fill="#000" opacity=".22"/><rect x="573.5" y="308" width="7" height="1.3" fill="#D9A441"/><rect x="583" y="306" width="9" height="22" fill="#7E2626" stroke="#2A1D14" stroke-width="1.4"/><rect x="590" y="306" width="2" height="22" fill="#000" opacity=".22"/><rect x="584.5" y="311" width="5" height="1.3" fill="#D9A441"/><rect x="592" y="306" width="9" height="22" fill="#4B5663" stroke="#2A1D14" stroke-width="1.4"/><rect x="599" y="306" width="2" height="22" fill="#000" opacity=".22"/><rect x="593.5" y="311" width="5" height="1.3" fill="#D9A441"/><rect x="533" y="338" width="9" height="22" fill="#C29466" stroke="#2A1D14" stroke-width="1.4"/><rect x="540" y="338" width="2" height="22" fill="#000" opacity=".22"/><rect x="534.5" y="343" width="5" height="1.3" fill="#D9A441"/><rect x="542" y="338" width="10" height="22" fill="#B9862C" stroke="#2A1D14" stroke-width="1.4"/><rect x="550" y="338" width="2" height="22" fill="#000" opacity=".22"/><rect x="543.5" y="343" width="6" height="1.3" fill="#D9A441"/><rect x="552" y="338" width="11" height="22" fill="#4B5663" stroke="#2A1D14" stroke-width="1.4"/><rect x="561" y="338" width="2" height="22" fill="#000" opacity=".22"/><rect x="553.5" y="343" width="7" height="1.3" fill="#D9A441"/><rect x="563" y="337" width="10" height="23" fill="#C29466" stroke="#2A1D14" stroke-width="1.4"/><rect x="571" y="337" width="2" height="23" fill="#000" opacity=".22"/><rect x="564.5" y="342" width="6" height="1.3" fill="#D9A441"/><rect x="573" y="336" width="9" height="24" fill="#553553" stroke="#2A1D14" stroke-width="1.4"/><rect x="580" y="336" width="2" height="24" fill="#000" opacity=".22"/><rect x="574.5" y="341" width="5" height="1.3" fill="#D9A441"/><rect x="582" y="337" width="8" height="23" fill="#553553" stroke="#2A1D14" stroke-width="1.4"/><rect x="588" y="337" width="2" height="23" fill="#000" opacity=".22"/><rect x="583.5" y="342" width="4" height="1.3" fill="#D9A441"/><rect x="590" y="337" width="11" height="23" fill="#2F5A45" stroke="#2A1D14" stroke-width="1.4"/><rect x="599" y="337" width="2" height="23" fill="#000" opacity=".22"/><rect x="591.5" y="342" width="7" height="1.3" fill="#D9A441"/><g class="lz-shl-newbook" id="lz-shl-book-placed"><rect x="533" y="276" width="9" height="20" fill="#7E2626" stroke="#2A1D14" stroke-width="1.4"/><rect x="540" y="276" width="2" height="20" fill="#000" opacity=".22"/><rect x="534.5" y="281" width="5.5" height="1.3" fill="#D9A441"/><rect x="534.5" y="283.7" width="5.5" height="1.3" fill="#D9A441"/></g><rect x="528" y="296" width="78" height="6" fill="#C8925A" stroke="#2A1D14" stroke-width="1.8" stroke-linejoin="round"/><rect x="529" y="297" width="76" height="2" fill="#E0AE78"/><rect x="528" y="328" width="78" height="6" fill="#C8925A" stroke="#2A1D14" stroke-width="1.8" stroke-linejoin="round"/><rect x="529" y="329" width="76" height="2" fill="#E0AE78"/><rect x="528" y="360" width="78" height="6" fill="#C8925A" stroke="#2A1D14" stroke-width="1.8" stroke-linejoin="round"/><rect x="529" y="361" width="76" height="2" fill="#E0AE78"/><rect x="528" y="268" width="78" height="6" fill="#C8925A" stroke="#2A1D14" stroke-width="1.8" stroke-linejoin="round"/><rect x="529" y="269" width="76" height="2" fill="#E0AE78"/><rect x="525" y="268" width="8" height="100" fill="#B88650" stroke="#2A1D14" stroke-width="1.8" stroke-linejoin="round"/><rect x="601" y="268" width="8" height="100" fill="#B88650" stroke="#2A1D14" stroke-width="1.8" stroke-linejoin="round"/><rect x="527.5" y="274" width="2" height="88" fill="#D9AA72"/><rect x="603.5" y="274" width="2" height="88" fill="#D9AA72"/><g fill="#D9A441" stroke="#2A1D14" stroke-width="1.2"><rect x="524" y="264" width="10" height="5" rx="1.5"/><rect x="600" y="264" width="10" height="5" rx="1.5"/><rect x="524.5" y="295" width="4" height="8"/><rect x="605.5" y="295" width="4" height="8"/><rect x="524.5" y="327" width="4" height="8"/><rect x="605.5" y="327" width="4" height="8"/><rect x="524.5" y="359" width="4" height="8"/><rect x="605.5" y="359" width="4" height="8"/></g></g>
<g id="lz-shl-louise"><g transform="translate(469 0) scale(-1 1)"><g class="lz-shl-turn"><ellipse cx="-4" cy="385" rx="42" ry="6" fill="#2A1B11" opacity=".34"/><g id="lz-shl-legs"><path d="M4 328L4 374" stroke="#2A222B" stroke-width="12" stroke-linecap="round" fill="none"/><g transform="translate(4 0)"><path d="M-22 383C-24 376 -17 371 -9 371H4C10 371 13 375 13 380C13 383 11 384 9 384H-18C-20 384 -21.500 384 -22 383Z" fill="#4F3621"/><path d="M-22 380.500H13V384H-18Q-21.500 384 -22 382Z" fill="#000" opacity=".12"/></g><path d="M-2 328L-2 374" stroke="#3A2F3A" stroke-width="12" stroke-linecap="round" fill="none"/><g transform="translate(-2 0)"><path d="M-22 383C-24 376 -17 371 -9 371H4C10 371 13 375 13 380C13 383 11 384 9 384H-18C-20 384 -21.500 384 -22 383Z" fill="#6B4A2E"/><path d="M-22 380.500H13V384H-18Q-21.500 384 -22 382Z" fill="#000" opacity=".2"/><ellipse cx="-14" cy="375" rx="3.600" ry="1.800" transform="rotate(-14 -14 375)" fill="#FFF" opacity=".6"/></g></g><g class="lz-shl-breath"><g class="lz-shl-lean"><g class="lz-shl-far" id="lz-shl-arm-far"><g fill="none" stroke-linecap="round" stroke-linejoin="round"><path d="M0 298L0 330" stroke="#1F3F32" stroke-width="14"/><path transform="translate(-1.2 -1)" d="M0 298L0 330" stroke="#24473A" stroke-width="10.5"/><g class="lz-shl-ff"><path d="M0 330L0 355" stroke="#1F3F32" stroke-width="13"/><path transform="translate(-1.2 -1)" d="M0 330L0 355" stroke="#24473A" stroke-width="9.5"/><path d="M0 350L0 355" stroke="#D9C49E" stroke-width="14.5" stroke-linecap="butt"/><g transform="translate(0 363) rotate(180)"><g fill="#C28A6C"><ellipse cy="1.5" rx="8.4" ry="7.6"/><ellipse cx="-6.3" cy="-6.8" rx="2.6" ry="5" transform="rotate(-12 -6.3 -6.8)"/><ellipse cx="-2.1" cy="-8.4" rx="2.6" ry="5.2" transform="rotate(-4 -2.1 -8.4)"/><ellipse cx="2.1" cy="-8.4" rx="2.6" ry="5.2" transform="rotate(4 2.1 -8.4)"/><ellipse cx="6.3" cy="-6.8" rx="2.6" ry="5" transform="rotate(12 6.3 -6.8)"/><ellipse cx="-9" cy="2.5" rx="3.5" ry="5" transform="rotate(-30 -9 2.5)"/></g><g fill="#D29C7E" transform="translate(-1.1 -1.1)"><ellipse cy="1.5" rx="8.4" ry="7.6"/><ellipse cx="-6.3" cy="-6.8" rx="2.6" ry="5" transform="rotate(-12 -6.3 -6.8)"/><ellipse cx="-2.1" cy="-8.4" rx="2.6" ry="5.2" transform="rotate(-4 -2.1 -8.4)"/><ellipse cx="2.1" cy="-8.4" rx="2.6" ry="5.2" transform="rotate(4 2.1 -8.4)"/><ellipse cx="6.3" cy="-6.8" rx="2.6" ry="5" transform="rotate(12 6.3 -6.8)"/><ellipse cx="-9" cy="2.5" rx="3.5" ry="5" transform="rotate(-30 -9 2.5)"/></g></g></g></g></g></g></g><g class="lz-shl-breath"><g id="lz-shl-skirt"><path d="M-23 321H24C27 334 30 344 33 354Q1 362 -31 354C-28 344 -26 334 -23 321Z" fill="#6E2A26"/><path d="M12 321H24C27 334 30 344 33 354Q25 358 14 359C17 344 15 332 12 321Z" fill="#4E1C1A"/><path d="M-20 326C-23 336 -26 345 -28 352Q-29 354 -26 354.500L-21 355C-21 344 -20 336 -17 326Z" fill="#8B3A34" opacity=".35"/></g></g><g class="lz-shl-breath"><g class="lz-shl-lean"><g id="lz-shl-torso"><path d="M-13 283H15C22 283 25 290 25 299L26 315Q26 326 18 326H-16Q-24 326 -24 315L-23 299C-23 290 -19 283 -13 283Z" fill="#2F5A45"/><path d="M-21 292C-24 302 -24 314 -24 318Q-23 325 -16 326H-12C-13 312 -14 298 -12 286Z" fill="#3E7259"/><path d="M15 283C22 283 25 290 25 299L26 315Q26 326 18 326H8C13 308 14 296 11 283Z" fill="#24473A"/><path d="M-14 285L-6 285C-6 300 -7 315 -8 326H-15Q-24 326 -24 315L-23 299C-23 293 -19 288 -14 285Z" fill="#FBF6EA"/><path d="M-6 285C-6 300 -7 315 -8 326H-4C-3 313 -3 299 -3 285Z" fill="#24473A" opacity=".5"/><g fill="#D9A441"><circle cx="-14.500" cy="308" r="2.400"/><circle cx="-14.500" cy="318" r="2.400"/><circle cx="-3" cy="298" r="4.200"/></g><circle cx="-3" cy="298" r="1.800" fill="#7E2626"/></g><g id="lz-shl-collar"><path transform="translate(0 2)" d="M-17 283C-17 292 -8 297 -1 296C7 295 13 290 11 281Z" fill="#D9C49E"/><path d="M-17 283C-17 292 -8 297 -1 296C7 295 13 290 11 281Z" fill="#FBF6EA"/></g><g class="lz-shl-nod"><g transform="translate(-52 194)" id="lz-shl-head">
<g id="lz-shl-glasses-far"><rect x="-7" y="40" width="20" height="28" rx="6" fill="#A9E4F2" fill-opacity=".12"/><rect x="-7" y="40" width="20" height="28" rx="6" fill="none" stroke="#5A3A22" stroke-width="5"/></g>
<path d="M32 0H68C86 0 100 14 100 32V62C100 79 88 92 70 92H34C12 92 0 82 0 60V32C0 14 14 0 32 0Z" fill="#D29C7E"/>
<g clip-path="url(#lz-shl-hc)"><path transform="translate(-3 -3.500)" d="M32 0H68C86 0 100 14 100 32V62C100 79 88 92 70 92H34C12 92 0 82 0 60V32C0 14 14 0 32 0Z" fill="url(#lz-shl-skin)"/></g>
<ellipse cx="38" cy="75" rx="8" ry="4.600" fill="#D68E7F" opacity=".45"/>
<ellipse cx="1.200" cy="76.500" rx="5" ry="4.200" fill="#D29C7E"/><ellipse cx=".3" cy="75.700" rx="3.700" ry="2.900" fill="#E9BE9F"/>
<path d="M9 82Q13.500 86.500 19 82" fill="none" stroke="#9C5A48" stroke-width="2.200" stroke-linecap="round"/>
<path id="lz-shl-glasses-arm" d="M30 43L64 44" fill="none" stroke="#5A3A22" stroke-width="4.400" stroke-linecap="round"/>
<g clip-path="url(#lz-shl-hc)">
<path d="M-10 -10H110V80C106 94 90 94 84 86C80 92 68 92 62 84C58 80 50 78 48 70C46 62 50 52 48 44C48 40 47 38 47 34C47 42 29 42 28 24C28 42 12 42 12 24C12 42 -4 42 -4 24L-10 24Z" fill="#B9B3A8"/>
<path transform="translate(-2.500 -3)" d="M-10 -10H110V80C106 94 90 94 84 86C80 92 68 92 62 84C58 80 50 78 48 70C46 62 50 52 48 44C48 40 47 38 47 34C47 42 29 42 28 24C28 42 12 42 12 24C12 42 -4 42 -4 24L-10 24Z" fill="#DCD8D0"/>
<path d="M10 20C14 8 32 3 54 4" fill="none" stroke="#FFF" stroke-width="6" stroke-linecap="round" opacity=".4"/>
</g>
<path d="M32 0H68C86 0 100 14 100 32V62C100 79 88 92 70 92H34C12 92 0 82 0 60V32C0 14 14 0 32 0Z" fill="none" stroke="#2A1D14" stroke-width="1.600" opacity=".35"/>
<g id="lz-shl-bun"><circle cx="78" cy="2" r="16" fill="#B9B3A8"/><g clip-path="url(#lz-shl-bc)"><circle cx="75" cy="-1" r="16" fill="#DCD8D0"/></g><circle cx="78" cy="2" r="16" fill="none" stroke="#2A1D14" stroke-width="1.600" opacity=".35"/><ellipse cx="71" cy="-6" rx="4.200" ry="2.600" transform="rotate(-30 71 -6)" fill="#FFF" opacity=".7"/></g>
<g id="lz-shl-pencil" transform="translate(78 2) rotate(-24)">
<path d="M-27 -3.800L-36 0L-27 3.800Z" fill="#E9BE9F"/><path d="M-33 -1.200L-36 0L-33 1.200Z" fill="#2A1D14"/>
<rect x="-27" y="-3.800" width="47" height="7.600" fill="#EDB82E"/><rect x="-27" y="0.400" width="47" height="3.400" fill="#D29A1A"/><rect x="-27" y="-3.800" width="47" height="2" fill="#FFF" opacity=".35"/>
<rect x="20" y="-3.800" width="4" height="7.600" fill="#B9B3A8"/><rect x="24" y="-3.800" width="7" height="7.600" rx="2.400" fill="#D9776B"/>
</g>
<g id="lz-shl-glasses">
<g clip-path="url(#lz-shl-pane)"><rect x="1.500" y="39.500" width="29" height="28" fill="#FFFDF7"/>
<g transform="translate(12.500 54)"><circle r="9.500" fill="#6B4A2E"/><path d="M-7.800 5.400A9.500 9.500 0 0 0 7.800 5.400A24.700 24.700 0 0 1 -7.800 5.400Z" fill="#9A6A3F"/><circle cx="-1.200" cy="-.4" r="5.200" fill="#1E130C"/><circle cx="-4.800" cy="-3.800" r="3" fill="#FFF"/><circle cx="2" cy="3" r="1.400" fill="#FFF"/></g>
<path d="M-2 38H34V43.500Q16 48.500 -2 43.500Z" fill="#E9BE9F"/></g>
<rect x="-1" y="37" width="34" height="33" rx="6" fill="#A9E4F2" fill-opacity=".12"/>
<path fill="#FFF" opacity=".35" d="M2 56L16 40H23L2 63Z"/>
<rect x="-1" y="37" width="34" height="33" rx="6" fill="none" stroke="#5A3A22" stroke-width="5"/>
<path d="M5 36H27" fill="none" stroke="#9A6A3F" stroke-width="1.600" stroke-linecap="round" opacity=".6"/>
</g>
<g id="lz-shl-chain" fill="none" stroke-linecap="round"><path d="M47 46C54 58 57 72 55 84C55 91 55 95 53 98" stroke="#D9A441" stroke-width="3"/><path d="M47 46C54 58 57 72 55 84C55 91 55 95 53 98" stroke="#E8C27A" stroke-width="4.800" stroke-dasharray="0.01 10"/></g>
</g></g><g class="lz-shl-u" id="lz-shl-arm-near"><g fill="none" stroke-linecap="round" stroke-linejoin="round"><path d="M0 298L0 330" stroke="#24473A" stroke-width="14"/><path transform="translate(-1.2 -1)" d="M0 298L0 330" stroke="#2F5A45" stroke-width="10.5"/><g class="lz-shl-fo"><path d="M0 330L0 355" stroke="#24473A" stroke-width="13"/><path transform="translate(-1.2 -1)" d="M0 330L0 355" stroke="#2F5A45" stroke-width="9.5"/><path d="M0 350L0 355" stroke="#FBF6EA" stroke-width="14.5" stroke-linecap="butt"/><g transform="translate(0 363) rotate(180)"><g fill="#D29C7E"><ellipse cy="1.5" rx="8.4" ry="7.6"/><ellipse cx="-6.3" cy="-6.8" rx="2.6" ry="5" transform="rotate(-12 -6.3 -6.8)"/><ellipse cx="-2.1" cy="-8.4" rx="2.6" ry="5.2" transform="rotate(-4 -2.1 -8.4)"/><ellipse cx="2.1" cy="-8.4" rx="2.6" ry="5.2" transform="rotate(4 2.1 -8.4)"/><ellipse cx="6.3" cy="-6.8" rx="2.6" ry="5" transform="rotate(12 6.3 -6.8)"/><ellipse cx="-9" cy="2.5" rx="3.5" ry="5" transform="rotate(-30 -9 2.5)"/></g><g fill="#E9BE9F" transform="translate(-1.1 -1.1)"><ellipse cy="1.5" rx="8.4" ry="7.6"/><ellipse cx="-6.3" cy="-6.8" rx="2.6" ry="5" transform="rotate(-12 -6.3 -6.8)"/><ellipse cx="-2.1" cy="-8.4" rx="2.6" ry="5.2" transform="rotate(-4 -2.1 -8.4)"/><ellipse cx="2.1" cy="-8.4" rx="2.6" ry="5.2" transform="rotate(4 2.1 -8.4)"/><ellipse cx="6.3" cy="-6.8" rx="2.6" ry="5" transform="rotate(12 6.3 -6.8)"/><ellipse cx="-9" cy="2.5" rx="3.5" ry="5" transform="rotate(-30 -9 2.5)"/></g></g><g transform="translate(0 363)"><g class="lz-shl-book" id="lz-shl-book-carried"><rect x="-4.5" y="-12" width="9" height="24" fill="#7E2626" stroke="#2A1D14" stroke-width="1.5" stroke-linejoin="round"/><rect x="-4.5" y="-12" width="2" height="24" fill="#000" opacity=".22"/><rect x="-3" y="-6.5" width="6.5" height="1.3" fill="#D9A441"/><rect x="-3" y="-3.8" width="6.5" height="1.3" fill="#D9A441"/></g></g></g></g></g></g></g></g></g></g>
<g id="lz-shl-lamp"><rect width="640" height="400" fill="url(#lz-shl-lampg)"/><circle cx="500" cy="212" r="70" fill="url(#lz-shl-lampg2)"/></g>
</svg>
